<svg xmlns="http://www.w3.org/2000/svg" width="805" height="300"><rect width="805" height="300" x="0" y="0" fill="#FFFFFF" id="background"/><g id="viz"><g transform="translate(0,0)"><g transform="translate(10,20)"><g><path fill="#9467bd" d="M0,223.78288467675833L2.842340733686487,223.73583699402363C5.684681467372974,223.6887893112889,11.369362934745949,223.59469394581944,17.054044402118922,223.6935337676722C22.738725869491898,223.792373589525,28.42340733686487,224.0841485987,34.108088804237845,223.44209538534722C39.79277027161081,222.80004217199448,45.47745173898378,221.22416073611387,51.16992044124357,219.08269403924587C56.86238914350336,216.9412273423778,62.56264508064995,214.23417538452222,68.25511378290975,211.06331865767777C73.94758248516952,207.89246193083332,79.63226395254252,204.257800435,85.31694541991548,204.29416788986111C91.00162688728847,204.33053534472222,96.68630835466143,208.0379317502778,102.37098982203442,211.03243941902778C108.05567128940739,214.02694708777778,113.74035275678035,216.30856601972224,119.43282145904014,217.36450645631945C125.12529016129992,218.42044689291666,130.8255460984465,218.25070883416666,136.5180148007063,218.19078740617223C142.21048350296607,218.13086597817778,147.89516497033904,218.1807611809389,153.57984643771204,216.5281466545736C159.26452790508503,214.8755321282083,164.949209372458,211.52040787271665,170.63389083983097,198.89059366851666C176.31857230720394,186.26077946431667,182.00325377457693,164.35627531140833,187.69572247683672,153.9469802967875C193.38819117909648,143.53768528216668,199.0884471162431,144.62359940583335,204.78091581850288,144.3363760904861C210.47338452076266,144.04915277513888,216.15806598813563,142.38879202077777,221.8427474555086,138.4950823562722C227.52742892288157,134.60137269176667,233.21211039025457,128.47431411711668,238.8967918576275,123.44726424999583C244.5814733250005,118.42021438287499,250.26615479237344,114.49317322328334,255.95829902651295,112.43981736203888C261.6504432606525,110.38646150079443,267.3500502615585,110.2067909378972,273.042194495698,107.97897151690553C278.73433872983753,105.75115209591387,284.4190201972105,101.47518381682777,290.10370166458347,114.40610916048747C295.78838313195644,127.33703450414721,301.4730645993294,157.47485347055274,307.1577460667024,172.25817385954306C312.84242753407534,187.04149424853335,318.5271090014483,186.47031606010833,324.2195777037081,187.05470536609585C329.91204640596794,187.63909467208336,335.61230234311455,189.37905147248338,341.30509551349456,190.34667028481667C346.99788868387463,191.31428909715,352.6832190874882,191.50956992141664,358.36822502298145,194.07858389674027C364.0532309584748,196.64759787206387,369.7379124258477,201.59034499844446,375.42259389322066,205.5345585686389C381.10727536059363,209.4787721388333,386.79195682796654,212.42445215284167,392.4844255302264,215.10928336411527C398.1768942324862,217.79411457538887,403.8771501696328,220.21809698392778,409.56961887189254,221.42701806986528C415.2620875741524,222.6359391558028,420.94676904152533,222.62979891913892,426.6314505088983,224.23924361516114C432.31613197627127,225.84868831118334,438.0008134436442,229.07371793989168,443.6854949110172,232.37895473934324C449.37017637839017,235.68419153879472,455.05485784576314,239.06963550898945,460.74732654802284,241.3790496922543C466.4397952502827,243.68846387551915,472.14005118742926,244.92184827185417,477.8325198896891,247.02452088224155C483.5249885919489,249.1271934926289,489.2096700593218,252.09915431706864,494.89435152669483,253.52704748854126C500.5790329940678,254.9549406600139,506.26371446144077,254.83876617851945,511.9483959288137,255.41880504764598C517.6330773961868,255.99884391677247,523.3177588635598,257.27509613652,529.0102275658195,258.1237015745811C534.7026962680793,258.9723070126422,540.4029522052259,259.39326566901696,546.0954209074856,259.62623573071124C551.7878896097454,259.8592057924056,557.4725710771185,259.9041872594194,563.1572525444914,259.92846965598324C568.8419340118644,259.95275205254694,574.5266154792374,259.9563353786605,580.21097247849,259.96287768566015C585.8953294777427,259.96941999265977,591.5793620088751,259.9789212805453,597.2715062430146,259.9856014964162C602.9636504771541,259.99228171228725,608.6639064143008,259.99614085614365,614.3566995846808,259.9980704280718C620.0494927550609,260,625.7348231586744,260,631.4198290941677,260C637.104835029661,260,642.789516497034,260,648.4741979644069,260C654.1588794317798,260,659.8435608991527,260,665.5360296014126,260C671.2284983036724,260,676.928754240819,260,682.6212229430788,260C688.3136916453386,260,693.9983731127114,260,699.6830545800844,260C705.3677360474575,260,711.0524175148306,260,716.7370989822035,260C722.4217804495765,260,728.1064619169493,260,733.7989306192093,260C739.491399321469,260,745.1916552586157,260,750.8841239608754,260C756.5765926631351,260,762.261274130508,260,767.945955597881,260C773.6306370652541,260,779.315318532627,260,782.1576592663135,260L785,260L785,260L782.1576592663135,260C779.315318532627,260,773.6306370652541,260,767.945955597881,260C762.261274130508,260,756.5765926631351,260,750.8841239608754,260C745.1916552586157,260,739.491399321469,260,733.7989306192093,260C728.1064619169493,260,722.4217804495765,260,716.7370989822035,260C711.0524175148306,260,705.3677360474575,260,699.6830545800844,260C693.9983731127114,260,688.3136916453386,260,682.6212229430788,260C676.928754240819,260,671.2284983036724,260,665.5360296014126,260C659.8435608991527,260,654.1588794317798,260,648.4741979644069,260C642.789516497034,260,637.104835029661,260,631.4198290941677,260C625.7348231586744,260,620.0494927550609,260,614.3566995846808,260C608.6639064143008,260,602.9636504771541,260,597.2715062430146,260C591.5793620088751,260,585.8953294777427,260,580.21097247849,260C574.5266154792374,260,568.8419340118644,260,563.1572525444914,260C557.4725710771185,260,551.7878896097454,260,546.0954209074856,259.81647224214737C540.4029522052259,259.63294448429474,534.7026962680793,259.2658889685894,529.0102275658195,258.65751263163526C523.3177588635598,258.0491362946811,517.6330773961868,257.1994391364781,511.9483959288137,257.0998089968737C506.26371446144077,257.0001788572694,500.5790329940678,257.6506157362639,494.89435152669483,256.8987160568468C489.2096700593218,256.14681637742973,483.5249885919489,253.99258013960107,477.8325198896891,253.04198414793166C472.14005118742926,252.09138815626224,466.4397952502827,252.34443241075192,460.74732654802295,252.16223035884957C455.05485784576314,251.98002830694722,449.37017637839017,251.36257994865278,443.6854949110172,250.65531967137224C438.0008134436442,249.9480593940917,432.31613197627127,249.150987197825,426.6314505088983,249.2304270998708C420.94676904152533,249.30986700191667,415.2620875741524,250.26581900227498,409.56961887189254,250.93087667089307C403.8771501696328,251.5959343395111,398.1768942324862,251.97009767638886,392.4844255302264,252.2150635857264C386.79195682796654,252.46002949506388,381.10727536059363,252.57579797686108,375.42259389322066,252.59614972675C369.7379124258477,252.6165014766389,364.0532309584748,252.54143649461943,358.36822502298145,252.54737291047635C352.6832190874882,252.55330932633333,346.99788868387463,252.64024714006666,341.30509551349456,252.78177463349724C335.61230234311455,252.92330212692778,329.91204640596794,253.1194193000556,324.2195777037081,253.28175443194309C318.5271090014483,253.44408956383054,312.84242753407534,253.5726426544778,307.1577460667024,240.72783394972362C301.4730645993294,227.88302524496945,295.78838313195644,202.06485474481386,290.10370166458347,191.29868330812636C284.4190201972105,180.53251187143886,278.73433872983753,184.81833949821942,273.042194495698,187.3037184212666C267.3500502615585,189.78909734431386,261.6504432606525,190.47402756362774,255.95829902651295,191.43244494853056C250.26615479237344,192.39086233343332,244.5814733250005,193.62276688392498,238.8967918576275,195.74483688880971C233.21211039025457,197.86690689369445,227.52742892288157,200.8791423529722,221.84274745550863,203.03359342284725C216.15806598813563,205.18804449272224,210.47338452076266,206.48471117319446,204.78091581850288,206.83587579743053C199.0884471162431,207.18704042166667,193.38819117909648,206.5927029896667,187.69572247683672,215.0494254541486C182.00325377457693,223.50614791863055,176.31857230720394,241.01393027959446,170.63389083983097,249.84753601998332C164.949209372458,258.6811417603722,159.26452790508503,258.84057088018614,153.57984643771204,259.0869521067597C147.89516497033904,259.3333333333333,142.21048350296607,259.6666666666667,136.5180148007063,259.8333333333333C130.8255460984465,260,125.12529016129992,260,119.43282145904014,260C113.74035275678035,260,108.05567128940739,260,102.3709898220344,260C96.68630835466143,260,91.00162688728847,260,85.31694541991548,260C79.63226395254252,260,73.94758248516952,260,68.25511378290975,260C62.56264508064995,260,56.86238914350336,260,51.16992044124357,260C45.47745173898378,260,39.79277027161081,260,34.108088804237845,260C28.42340733686487,260,22.738725869491898,260,17.054044402118922,260C11.369362934745949,260,5.684681467372974,260,2.842340733686487,260L0,260Z"><title>Tape</title></path><path fill="#1f77b4" d="M0,260L2.842340733686487,260C5.684681467372974,260,11.369362934745949,260,17.054044402118922,260C22.738725869491898,260,28.42340733686487,260,34.108088804237845,260C39.79277027161081,260,45.47745173898378,260,51.16992044124357,260C56.86238914350336,260,62.56264508064995,260,68.25511378290975,260C73.94758248516952,260,79.63226395254252,260,85.31694541991548,260C91.00162688728847,260,96.68630835466143,260,102.37098982203442,260C108.05567128940739,260,113.74035275678035,260,119.43282145904014,260C125.12529016129992,260,130.8255460984465,260,136.5180148007063,260C142.21048350296607,260,147.89516497033904,260,153.57984643771204,259.92028544009304C159.26452790508503,259.84057088018614,164.949209372458,259.6811417603722,170.63389083983097,259.22220450056665C176.31857230720394,258.7632672407611,182.00325377457693,258.00482184096387,187.69572247683672,256.41358532235694C193.38819117909648,254.82234880375003,199.0884471162431,252.39832116633337,204.78091581850288,248.93995119211112C210.47338452076266,245.4815812178889,216.15806598813563,240.98886890686114,221.8427474555086,231.9689318911111C227.52742892288157,222.9489948753611,233.21211039025457,209.4018331548889,238.8967918576275,202.01230001940692C244.5814733250005,194.62276688392498,250.26615479237344,193.39086233343332,255.95829902651295,192.43244494853056C261.6504432606525,191.47402756362774,267.3500502615585,190.78909734431386,273.042194495698,188.30371842126667C278.73433872983753,185.81833949821942,284.4190201972105,181.53251187143886,290.10370166458347,166.1304989241083C295.78838313195644,150.72848597677773,301.4730645993294,124.21028770889718,307.1577460667024,107.81252325331802C312.84242753407534,91.41475879773888,318.5271090014483,85.13742815446112,324.2195777037081,79.59504510627501C329.91204640596794,74.05266205808891,335.61230234311455,69.24522660499446,341.30509551349456,61.34665436732362C346.99788868387463,53.44808212965278,352.6832190874882,42.45837310740554,358.36822502298145,37.235234591879156C364.0532309584748,32.012096076352755,369.7379124258477,32.555528067547215,375.42259389322066,33.269395479759716C381.10727536059363,33.983262891972224,386.79195682796654,34.86756572520277,392.4844255302264,36.99099406324028C398.1768942324862,39.11442240127778,403.8771501696328,42.47697624412223,409.56961887189254,40.522646953879175C415.2620875741524,38.56831766363612,420.94676904152533,31.297105240305566,426.6314505088983,26.08031245061946C432.31613197627127,20.863519660933353,438.0008134436442,17.701146504891693,443.6854949110172,18.13375498427377C449.37017637839017,18.566363463655847,455.05485784576314,22.59395357846166,460.74732654802284,27.175326771573747C466.4397952502827,31.756699964685833,472.14005118742926,36.89185623610418,477.8325198896891,42.917559255610996C483.5249885919489,48.9432622751178,489.2096700593218,55.85951204271307,494.89435152669483,61.61574030589819C500.5790329940678,67.37196856908332,506.26371446144077,71.96817532785833,511.9483959288137,73.83861258276137C517.6330773961868,75.70904983766444,523.3177588635598,74.85371758869553,529.0102275658195,75.54509330908621C534.7026962680793,76.23646902947691,540.4029522052259,78.47455271922719,546.0954209074856,81.71579653540914C551.7878896097454,84.95704035159109,557.4725710771185,89.2014442942047,563.1572525444914,94.53256782065459C568.8419340118644,99.86369134710445,574.5266154792374,106.28153445739055,580.21097247849,114.39004096851C585.8953294777427,122.49854747962944,591.5793620088751,132.2977173915822,597.2715062430146,139.331788431864C602.9636504771541,146.36585947214581,608.6639064143008,150.63483164075666,614.3566995846808,154.7711650598961C620.0494927550609,158.90749847903555,625.7348231586744,162.91119314870363,631.4198290941677,165.11741694010044C637.104835029661,167.32364073149722,642.789516497034,167.7323936446228,648.4741979644069,174.70548144120872C654.1588794317798,181.67856923779473,659.8435608991527,195.21599191784114,665.5360296014126,201.8723413807946C671.2284983036724,208.52869084374808,676.928754240819,208.30396708960862,682.6212229430788,211.99952115701527C688.3136916453386,215.6950752244219,693.9983731127114,223.31090711337472,699.6830545800844,227.6018359392754C705.3677360474575,231.8927647651761,711.0524175148306,232.85879052802474,716.7370989822035,233.9666099675643C722.4217804495765,235.07442940710385,728.1064619169493,236.32404252333444,733.7989306192093,237.09571260184637C739.491399321469,237.86738268035833,745.1916552586157,238.16110972115166,750.8841239608754,238.91421071677016C756.5765926631351,239.6673117123886,762.261274130508,240.8797866628322,767.945955597881,241.56235510417415C773.6306370652541,242.24492354551612,779.315318532627,242.3975854777564,782.1576592663135,242.47391644387653L785,242.55024740999667L785,249.214098988255L782.1576592663135,249.31281615870807C779.315318532627,249.4115333291611,773.6306370652541,249.60896767006724,767.945955597881,249.81126407606902C762.261274130508,250.01356048207083,756.5765926631351,250.22071895316833,750.8841239608754,250.35954289786858C745.1916552586157,250.49836684256888,739.491399321469,250.56885626087194,733.7989306192093,250.62024201464192C728.1064619169493,250.67162776841192,722.4217804495765,250.70390985764888,716.7370989822035,250.89045872075198C711.0524175148306,251.077007583855,705.3677360474575,251.41782322082418,699.6830545800844,248.5573324450053C693.9983731127114,245.69684166918637,688.3136916453386,239.63504448057947,682.6212229430788,237.4740639350575C676.928754240819,235.31308338953556,671.2284983036724,237.0529194870986,665.5360296014126,232.52085358061777C659.8435608991527,227.98878767413694,654.1588794317798,217.18481976361224,648.4741979644069,212.38993638629373C642.789516497034,207.59505300897527,637.104835029661,208.80925416486306,631.4198290941677,209.53401298573684C625.7348231586744,210.25877180661055,620.0494927550609,210.4940882924703,614.3566995846808,210.91744036583043C608.6639064143008,211.34079243919055,602.9636504771541,211.9521801000511,597.2715062430146,212.2433489454686C591.5793620088751,212.5345177908861,585.8953294777427,212.50546782086056,580.21097247849,214.14315274095114C574.5266154792374,215.7808376610417,568.8419340118644,219.08525747124835,563.1572525444914,222.03913058067766C557.4725710771185,224.99300369010697,551.7878896097454,227.5963300987589,546.0954209074856,230.9127511229847C540.4029522052259,234.22917214721053,534.7026962680793,238.25868778701025,529.0102275658195,240.98920689634596C523.3177588635598,243.71972600568165,517.6330773961868,245.15124858455331,511.9483959288137,246.18658894181553C506.26371446144077,247.22192929907774,500.5790329940678,247.86108743473054,494.89435152669483,247.62316435219122C489.2096700593218,247.38524126965194,483.5249885919489,246.27023696892056,477.8325198896891,245.09604262038735C472.14005118742926,243.92184827185417,466.4397952502827,242.68846387551915,460.74732654802295,240.37904969225428C455.05485784576314,238.06963550898945,449.37017637839017,234.68419153879472,443.6854949110172,231.3789547393432C438.0008134436442,228.07371793989168,432.31613197627127,224.84868831118334,426.6314505088983,223.23924361516114C420.94676904152533,221.62979891913892,415.2620875741524,221.6359391558028,409.56961887189254,220.42701806986528C403.8771501696328,219.21809698392778,398.1768942324862,216.79411457538887,392.4844255302264,214.10928336411527C386.79195682796654,211.42445215284167,381.10727536059363,208.4787721388333,375.42259389322066,204.5345585686389C369.7379124258477,200.59034499844446,364.0532309584748,195.64759787206387,358.36822502298145,193.07858389674027C352.6832190874882,190.50956992141664,346.99788868387463,190.31428909715,341.30509551349456,189.34667028481667C335.61230234311455,188.37905147248338,329.91204640596794,186.63909467208336,324.2195777037081,186.05470536609585C318.5271090014483,185.47031606010833,312.84242753407534,186.04149424853335,307.1577460667024,196.97754854485C301.4730645993294,207.91360284116664,295.78838313195644,229.214533245375,290.10370166458347,239.42943182879864C284.4190201972105,249.64433041222222,278.73433872983753,248.7731971748611,273.042194495698,247.24007688793054C267.3500502615585,245.706956601,261.6504432606525,243.5118492645,255.95829902651295,241.31272758037497C250.26615479237344,239.11360589624996,244.5814733250005,236.9104698645,238.8967918576275,240.02434620983334C233.21211039025457,243.13822255516666,227.52742892288157,251.56911127758335,221.84274745550863,255.78455563879166C216.15806598813563,260,210.47338452076266,260,204.78091581850288,260C199.0884471162431,260,193.38819117909648,260,187.69572247683672,260C182.00325377457693,260,176.31857230720394,260,170.63389083983097,260C164.949209372458,260,159.26452790508503,260,153.57984643771204,260C147.89516497033904,260,142.21048350296607,260,136.5180148007063,260C130.8255460984465,260,125.12529016129992,260,119.43282145904014,260C113.74035275678035,260,108.05567128940739,260,102.3709898220344,260C96.68630835466143,260,91.00162688728847,260,85.31694541991548,260C79.63226395254252,260,73.94758248516952,260,68.25511378290975,260C62.56264508064995,260,56.86238914350336,260,51.16992044124357,260C45.47745173898378,260,39.79277027161081,260,34.108088804237845,260C28.42340733686487,260,22.738725869491898,260,17.054044402118922,260C11.369362934745949,260,5.684681467372974,260,2.842340733686487,260L0,260Z"><title>Disc</title></path><path fill="#ff7f0e" d="M0,260L2.842340733686487,260C5.684681467372974,260,11.369362934745949,260,17.054044402118922,260C22.738725869491898,260,28.42340733686487,260,34.108088804237845,260C39.79277027161081,260,45.47745173898378,260,51.16992044124357,260C56.86238914350336,260,62.56264508064995,260,68.25511378290975,260C73.94758248516952,260,79.63226395254252,260,85.31694541991548,260C91.00162688728847,260,96.68630835466143,260,102.37098982203442,260C108.05567128940739,260,113.74035275678035,260,119.43282145904014,260C125.12529016129992,260,130.8255460984465,260,136.5180148007063,259.8333333333333C142.21048350296607,259.6666666666667,147.89516497033904,259.3333333333333,153.57984643771204,259.3333333333333C159.26452790508503,259.3333333333333,164.949209372458,259.6666666666667,170.63389083983097,259.8333333333333C176.31857230720394,260,182.00325377457693,260,187.69572247683672,260C193.38819117909648,260,199.0884471162431,260,204.78091581850288,260C210.47338452076266,260,216.15806598813563,260,221.8427474555086,260C227.52742892288157,260,233.21211039025457,260,238.8967918576275,260C244.5814733250005,260,250.26615479237344,260,255.95829902651295,260C261.6504432606525,260,267.3500502615585,260,273.042194495698,260C278.73433872983753,260,284.4190201972105,260,290.10370166458347,260C295.78838313195644,260,301.4730645993294,260,307.1577460667024,260C312.84242753407534,260,318.5271090014483,260,324.2195777037081,260C329.91204640596794,260,335.61230234311455,260,341.30509551349456,260C346.99788868387463,260,352.6832190874882,260,358.36822502298145,260C364.0532309584748,260,369.7379124258477,260,375.42259389322066,260C381.10727536059363,260,386.79195682796654,260,392.4844255302264,260C398.1768942324862,260,403.8771501696328,260,409.56961887189254,260C415.2620875741524,260,420.94676904152533,260,426.6314505088983,260C432.31613197627127,260,438.0008134436442,260,443.6854949110172,260C449.37017637839017,260,455.05485784576314,260,460.74732654802284,260C466.4397952502827,260,472.14005118742926,260,477.8325198896891,260C483.5249885919489,260,489.2096700593218,260,494.89435152669483,260C500.5790329940678,260,506.26371446144077,260,511.9483959288137,258.8810268988557C517.6330773961868,257.76205379771136,523.3177588635598,255.52410759542275,529.0102275658195,250.7240503466579C534.7026962680793,245.92399309789303,540.4029522052259,238.56182480265193,546.0954209074856,233.57907745070543C551.7878896097454,228.5963300987589,557.4725710771185,225.99300369010697,563.1572525444914,223.03913058067766C568.8419340118644,220.08525747124835,574.5266154792374,216.7808376610417,580.21097247849,215.1431527409511C585.8953294777427,213.50546782086056,591.5793620088751,213.5345177908861,597.2715062430146,213.2433489454686C602.9636504771541,212.9521801000511,608.6639064143008,212.34079243919055,614.3566995846808,211.91744036583043C620.0494927550609,211.4940882924703,625.7348231586744,211.25877180661055,631.4198290941677,210.5340129857368C637.104835029661,209.80925416486306,642.789516497034,208.59505300897527,648.4741979644069,201.98586478657862C654.1588794317798,195.37667656418193,659.8435608991527,183.3725012752764,665.5360296014126,177.53567470496918C671.2284983036724,171.69884813466194,676.928754240819,172.02937028295307,682.6212229430788,173.08089836045556C688.3136916453386,174.13242643795806,693.9983731127114,175.90496044467193,699.6830545800844,181.4823025153271C705.3677360474575,187.05964458598223,711.0524175148306,196.44179472057863,716.7370989822035,202.70644443238197C722.4217804495765,208.9710941441853,728.1064619169493,212.11824343319554,733.7989306192093,214.7494568929478C739.491399321469,217.3806703527,745.1916552586157,219.49594798319416,750.8841239608754,221.89395524603583C756.5765926631351,224.2919625088775,762.261274130508,226.97269940406667,767.945955597881,228.75367233766585C773.6306370652541,230.53464527126502,779.315318532627,231.4158542432742,782.1576592663135,231.85645872927876L785,232.29706321528334L785,241.55024740999667L782.1576592663135,241.47391644387653C779.315318532627,241.3975854777564,773.6306370652541,241.24492354551612,767.945955597881,240.56235510417415C762.261274130508,239.8797866628322,756.5765926631351,238.6673117123886,750.8841239608754,237.91421071677016C745.1916552586157,237.16110972115166,739.491399321469,236.86738268035833,733.7989306192093,236.09571260184637C728.1064619169493,235.32404252333444,722.4217804495765,234.07442940710385,716.7370989822035,229.23663777084207C711.0524175148306,224.39884613458025,705.3677360474575,215.97287597828722,699.6830545800844,211.68194715238653C693.9983731127114,207.3910183264858,688.3136916453386,207.23513083097748,682.6212229430788,207.26954896029304C676.928754240819,207.30396708960862,671.2284983036724,207.52869084374808,665.5360296014126,213.53381488605666C659.8435608991527,219.53893892836527,654.1588794317798,231.32446325884302,648.4741979644069,237.57113060926886C642.789516497034,243.81779795969473,637.104835029661,244.52560833006862,631.4198290941677,245.0188305212132C625.7348231586744,245.5120527123578,620.0494927550609,245.79068672427306,614.3566995846808,246.27086406037347C608.6639064143008,246.75104139647388,602.9636504771541,247.43276205675943,597.2715062430146,247.3278610594297C591.5793620088751,247.22296006210001,585.8953294777427,246.331437407155,580.21097247849,245.98863656338722C574.5266154792374,245.64583571961944,568.8419340118644,245.85175668702888,563.1572525444914,245.6630171581415C557.4725710771185,245.47427762925417,551.7878896097454,244.89087760406997,546.0954209074856,246.5440321740068C540.4029522052259,248.19718674394358,534.7026962680793,252.08689590900136,529.0102275658195,254.70231631252037C523.3177588635598,257.3177367160394,517.6330773961868,258.6588683580197,511.9483959288137,259.32943417900987C506.26371446144077,260,500.5790329940678,260,494.89435152669483,260C489.2096700593218,260,483.5249885919489,260,477.8325198896891,260C472.14005118742926,260,466.4397952502827,260,460.74732654802295,260C455.05485784576314,260,449.37017637839017,260,443.6854949110172,260C438.0008134436442,260,432.31613197627127,260,426.6314505088983,260C420.94676904152533,260,415.2620875741524,260,409.56961887189254,260C403.8771501696328,260,398.1768942324862,260,392.4844255302264,260C386.79195682796654,260,381.10727536059363,260,375.42259389322066,260C369.7379124258477,260,364.0532309584748,260,358.36822502298145,260C352.6832190874882,260,346.99788868387463,260,341.30509551349456,260C335.61230234311455,260,329.91204640596794,260,324.2195777037081,260C318.5271090014483,260,312.84242753407534,260,307.1577460667024,260C301.4730645993294,260,295.78838313195644,260,290.10370166458347,260C284.4190201972105,260,278.73433872983753,260,273.042194495698,260C267.3500502615585,260,261.6504432606525,260,255.95829902651295,260C250.26615479237344,260,244.5814733250005,260,238.8967918576275,260C233.21211039025457,260,227.52742892288157,260,221.84274745550863,260C216.15806598813563,260,210.47338452076266,260,204.78091581850288,260C199.0884471162431,260,193.38819117909648,260,187.69572247683672,260C182.00325377457693,260,176.31857230720394,260,170.63389083983097,259.8333333333333C164.949209372458,259.6666666666667,159.26452790508503,259.3333333333333,153.57984643771204,259.3333333333333C147.89516497033904,259.3333333333333,142.21048350296607,259.6666666666667,136.5180148007063,259.8333333333333C130.8255460984465,260,125.12529016129992,260,119.43282145904014,260C113.74035275678035,260,108.05567128940739,260,102.3709898220344,260C96.68630835466143,260,91.00162688728847,260,85.31694541991548,260C79.63226395254252,260,73.94758248516952,260,68.25511378290975,260C62.56264508064995,260,56.86238914350336,260,51.16992044124357,260C45.47745173898378,260,39.79277027161081,260,34.108088804237845,260C28.42340733686487,260,22.738725869491898,260,17.054044402118922,260C11.369362934745949,260,5.684681467372974,260,2.842340733686487,260L0,260Z"><title>Download</title></path><path fill="#2ca02c" d="M0,260L2.842340733686487,260C5.684681467372974,260,11.369362934745949,260,17.054044402118922,260C22.738725869491898,260,28.42340733686487,260,34.108088804237845,260C39.79277027161081,260,45.47745173898378,260,51.16992044124357,260C56.86238914350336,260,62.56264508064995,260,68.25511378290975,260C73.94758248516952,260,79.63226395254252,260,85.31694541991548,260C91.00162688728847,260,96.68630835466143,260,102.37098982203442,260C108.05567128940739,260,113.74035275678035,260,119.43282145904014,260C125.12529016129992,260,130.8255460984465,260,136.5180148007063,259.8333333333333C142.21048350296607,259.6666666666667,147.89516497033904,259.3333333333333,153.57984643771204,259.3333333333333C159.26452790508503,259.3333333333333,164.949209372458,259.6666666666667,170.63389083983097,259.8333333333333C176.31857230720394,260,182.00325377457693,260,187.69572247683672,260C193.38819117909648,260,199.0884471162431,260,204.78091581850288,260C210.47338452076266,260,216.15806598813563,260,221.8427474555086,260C227.52742892288157,260,233.21211039025457,260,238.8967918576275,260C244.5814733250005,260,250.26615479237344,260,255.95829902651295,259.5704114791667C261.6504432606525,259.14082295833333,267.3500502615585,258.28164591666666,273.042194495698,257.67312118419443C278.73433872983753,257.06459645172225,284.4190201972105,256.7067240284444,290.10370166458347,256.25317850679863C295.78838313195644,255.79963298515278,301.4730645993294,255.25041436513888,307.1577460667024,254.91152850980833C312.84242753407534,254.5726426544778,318.5271090014483,254.44408956383054,324.2195777037081,254.28175443194309C329.91204640596794,254.1194193000556,335.61230234311455,253.92330212692778,341.30509551349456,253.78177463349724C346.99788868387463,253.64024714006666,352.6832190874882,253.55330932633333,358.36822502298145,253.54737291047638C364.0532309584748,253.54143649461943,369.7379124258477,253.6165014766389,375.42259389322066,253.59614972674999C381.10727536059363,253.57579797686108,386.79195682796654,253.46002949506388,392.4844255302264,253.21506358572637C398.1768942324862,252.97009767638886,403.8771501696328,252.5959343395111,409.56961887189254,251.930876670893C415.2620875741524,251.26581900227498,420.94676904152533,250.30986700191667,426.6314505088983,250.23042709987087C432.31613197627127,250.150987197825,438.0008134436442,250.9480593940917,443.6854949110172,251.6553196713722C449.37017637839017,252.36257994865278,455.05485784576314,252.98002830694722,460.74732654802284,253.16223035884957C466.4397952502827,253.34443241075192,472.14005118742926,253.09138815626224,477.8325198896891,252.40851630711919C483.5249885919489,251.72564445797607,489.2096700593218,250.6129450141797,494.89435152669483,249.73701622445512C500.5790329940678,248.86108743473054,506.26371446144077,248.22192929907774,511.9483959288137,247.18658894181556C517.6330773961868,246.15124858455331,523.3177588635598,244.71972600568165,529.0102275658195,244.34051040825844C534.7026962680793,243.96129481083526,540.4029522052259,244.63438619486055,546.0954209074856,245.26263189946528C551.7878896097454,245.89087760406997,557.4725710771185,246.47427762925417,563.1572525444914,246.6630171581415C568.8419340118644,246.85175668702888,574.5266154792374,246.64583571961944,580.21097247849,247.84437480552614C585.8953294777427,249.0429138914328,591.5793620088751,251.64591303065558,597.2715062430146,251.75081402798526C602.9636504771541,251.85571502531502,608.6639064143008,249.46251788075165,614.3566995846808,249.27043036958182C620.0494927550609,249.07834285841196,625.7348231586744,251.08736498063558,631.4198290941677,252.10207827267152C637.104835029661,253.11679156470754,642.789516497034,253.13719602655587,648.4741979644069,253.16309004288402C654.1588794317798,253.18898405921223,659.8435608991527,253.2203676300203,665.5360296014126,253.17191909426776C671.2284983036724,253.12347055851527,676.928754240819,252.9951899162022,682.6212229430788,252.91300452569638C688.3136916453386,252.83081913519052,693.9983731127114,252.79472899649193,699.6830545800844,253.43342141296205C705.3677360474575,254.0721138294322,711.0524175148306,255.3855888010711,716.7370989822035,256.0586900256257C722.4217804495765,256.73179125018027,728.1064619169493,256.7645187276505,733.7989306192093,256.7957338936293C739.491399321469,256.82694905960807,745.1916552586157,256.85665191409527,750.8841239608754,256.80521718500285C756.5765926631351,256.7537824559103,762.261274130508,256.6212101432381,767.945955597881,256.5865290776739C773.6306370652541,256.5518480121097,779.315318532627,256.6150581936536,782.1576592663135,256.6466632844256L785,256.6782683751975L785,260L782.1576592663135,260C779.315318532627,260,773.6306370652541,260,767.945955597881,260C762.261274130508,260,756.5765926631351,260,750.8841239608754,260C745.1916552586157,260,739.491399321469,260,733.7989306192093,260C728.1064619169493,260,722.4217804495765,260,716.7370989822035,259.3471422412529C711.0524175148306,258.6942844825058,705.3677360474575,257.38856896501164,699.6830545800844,256.7984213696498C693.9983731127114,256.20827377428805,688.3136916453386,256.3336941010586,682.6212229430788,256.4872125583929C676.928754240819,256.6407310157272,671.2284983036724,256.82234760362525,665.5360296014126,256.9913650480599C659.8435608991527,257.1603824924944,654.1588794317798,257.3168007934656,648.4741979644069,257.4564120770125C642.789516497034,257.59602336055946,637.104835029661,257.71882762668224,631.4198290941677,256.88572945502125C625.7348231586744,256.0526312833603,620.0494927550609,254.26363067391557,614.3566995846808,254.16031524544624C608.6639064143008,254.05699981697694,602.9636504771541,255.63936956948305,597.2715062430146,255.725353631159C591.5793620088751,255.811337692835,585.8953294777427,254.40093606368086,580.21097247849,253.7496538028729C574.5266154792374,253.09837154206502,568.8419340118644,253.20620864960335,563.1572525444914,253.37786933240443C557.4725710771185,253.54953001520553,551.7878896097454,253.78501427326944,546.0954209074856,253.61370021260151C540.4029522052259,253.44238615193362,534.7026962680793,252.8642737725339,529.0102275658195,252.8146226334825C523.3177588635598,252.76497149443108,517.6330773961868,253.24378159572802,511.9483959288137,253.54127388712377C506.26371446144077,253.83876617851945,500.5790329940678,253.9549406600139,494.89435152669483,254.68124924410282C489.2096700593218,255.4075578281917,483.5249885919489,256.74400051487504,477.8325198896891,257.42072779674726C472.14005118742926,258.0974550786195,466.4397952502827,258.1144669556806,460.74732654802295,258.1023140924111C455.05485784576314,258.09016122914164,449.37017637839017,258.0488436255417,443.6854949110172,258.0245315452889C438.0008134436442,258.0002194650361,432.31613197627127,257.99291290813056,426.6314505088983,257.9601667271486C420.94676904152533,257.9274205461666,415.2620875741524,257.8692347411083,409.56961887189254,257.7902880746986C403.8771501696328,257.7113414082889,398.1768942324862,257.6116338805278,392.4844255302264,257.59231805118475C386.79195682796654,257.5730022218417,381.10727536059363,257.6340780909167,375.42259389322066,257.6796329458611C369.7379124258477,257.72518780080554,364.0532309584748,257.75522164161947,358.36822502298145,257.7752768795458C352.6832190874882,257.79533211747224,346.99788868387463,257.8054087525111,341.30509551349456,257.74498610758053C335.61230234311455,257.68456346265,329.91204640596794,257.55364153775,324.2195777037081,257.43485247437366C318.5271090014483,257.31606341099723,312.84242753407534,257.20940720914444,307.1577460667024,257.6389539403361C301.4730645993294,258.0685006715278,295.78838313195644,259.0342503357639,290.10370166458347,259.51712516788194C284.4190201972105,260,278.73433872983753,260,273.042194495698,260C267.3500502615585,260,261.6504432606525,260,255.95829902651295,260C250.26615479237344,260,244.5814733250005,260,238.8967918576275,260C233.21211039025457,260,227.52742892288157,260,221.84274745550863,260C216.15806598813563,260,210.47338452076266,260,204.78091581850288,260C199.0884471162431,260,193.38819117909648,260,187.69572247683672,260C182.00325377457693,260,176.31857230720394,260,170.63389083983097,259.8333333333333C164.949209372458,259.6666666666667,159.26452790508503,259.3333333333333,153.57984643771204,259.3333333333333C147.89516497033904,259.3333333333333,142.21048350296607,259.6666666666667,136.5180148007063,259.8333333333333C130.8255460984465,260,125.12529016129992,260,119.43282145904014,260C113.74035275678035,260,108.05567128940739,260,102.3709898220344,260C96.68630835466143,260,91.00162688728847,260,85.31694541991548,260C79.63226395254252,260,73.94758248516952,260,68.25511378290975,260C62.56264508064995,260,56.86238914350336,260,51.16992044124357,260C45.47745173898378,260,39.79277027161081,260,34.108088804237845,260C28.42340733686487,260,22.738725869491898,260,17.054044402118922,260C11.369362934745949,260,5.684681467372974,260,2.842340733686487,260L0,260Z"><title>Other</title></path><path fill="#d62728" d="M0,260L2.842340733686487,260C5.684681467372974,260,11.369362934745949,260,17.054044402118922,260C22.738725869491898,260,28.42340733686487,260,34.108088804237845,260C39.79277027161081,260,45.47745173898378,260,51.16992044124357,260C56.86238914350336,260,62.56264508064995,260,68.25511378290975,260C73.94758248516952,260,79.63226395254252,260,85.31694541991548,260C91.00162688728847,260,96.68630835466143,260,102.37098982203442,260C108.05567128940739,260,113.74035275678035,260,119.43282145904014,260C125.12529016129992,260,130.8255460984465,260,136.5180148007063,259.8333333333333C142.21048350296607,259.6666666666667,147.89516497033904,259.3333333333333,153.57984643771204,259.3333333333333C159.26452790508503,259.3333333333333,164.949209372458,259.6666666666667,170.63389083983097,259.8333333333333C176.31857230720394,260,182.00325377457693,260,187.69572247683672,260C193.38819117909648,260,199.0884471162431,260,204.78091581850288,260C210.47338452076266,260,216.15806598813563,260,221.8427474555086,260C227.52742892288157,260,233.21211039025457,260,238.8967918576275,259.8333333333333C244.5814733250005,259.6666666666667,250.26615479237344,259.3333333333333,255.95829902651295,259.3333333333333C261.6504432606525,259.3333333333333,267.3500502615585,259.6666666666667,273.042194495698,259.8333333333333C278.73433872983753,260,284.4190201972105,260,290.10370166458347,260C295.78838313195644,260,301.4730645993294,260,307.1577460667024,260C312.84242753407534,260,318.5271090014483,260,324.2195777037081,260C329.91204640596794,260,335.61230234311455,260,341.30509551349456,260C346.99788868387463,260,352.6832190874882,260,358.36822502298145,260C364.0532309584748,260,369.7379124258477,260,375.42259389322066,260C381.10727536059363,260,386.79195682796654,260,392.4844255302264,260C398.1768942324862,260,403.8771501696328,260,409.56961887189254,260C415.2620875741524,260,420.94676904152533,260,426.6314505088983,260C432.31613197627127,260,438.0008134436442,260,443.6854949110172,260C449.37017637839017,260,455.05485784576314,260,460.74732654802284,260C466.4397952502827,260,472.14005118742926,260,477.8325198896891,260C483.5249885919489,260,489.2096700593218,260,494.89435152669483,259.8333333333333C500.5790329940678,259.6666666666667,506.26371446144077,259.3333333333333,511.9483959288137,259.31647224214737C517.6330773961868,259.2996111509614,523.3177588635598,259.5992223019228,529.0102275658195,258.93597205714497C534.7026962680793,258.27272181236725,540.4029522052259,256.6466101718502,546.0954209074856,255.71581222255986C551.7878896097454,254.78501427326944,557.4725710771185,254.54953001520553,563.1572525444914,254.37786933240443C568.8419340118644,254.20620864960335,574.5266154792374,254.09837154206502,580.21097247849,253.23177770204893C585.8953294777427,252.36518386203275,591.5793620088751,250.7398332895389,597.2715062430146,250.6538492278629C602.9636504771541,250.56786516618695,608.6639064143008,252.0212476153289,614.3566995846808,251.5410702792285C620.0494927550609,251.06089294312804,625.7348231586744,248.64715582178528,631.4198290941677,247.08638207592696C637.104835029661,245.52560833006862,642.789516497034,244.81779795969473,648.4741979644069,243.74435410706454C654.1588794317798,242.6709102544344,659.8435608991527,241.23183291954805,665.5360296014126,239.64237620332332C671.2284983036724,238.0529194870986,676.928754240819,236.31308338953556,682.6212229430788,231.1054417624243C688.3136916453386,225.89780013531308,693.9983731127114,217.2223529786536,699.6830545800844,207.72381020577072C705.3677360474575,198.22526743288776,711.0524175148306,187.9036290437814,716.7370989822035,181.2365291318528C722.4217804495765,174.56942921992416,728.1064619169493,171.55686778517335,733.7989306192093,168.06110051185613C739.491399321469,164.5653332385389,745.1916552586157,160.58636012665528,750.8841239608754,157.0624271092525C756.5765926631351,153.53849409184974,762.261274130508,150.46960116892777,767.945955597881,146.97245897055473C773.6306370652541,143.47531677218169,779.315318532627,139.5499252983575,782.1576592663135,137.5872295614454L785,135.62453382453333L785,231.29706321528334L782.1576592663135,230.85645872927876C779.315318532627,230.4158542432742,773.6306370652541,229.53464527126502,767.945955597881,227.75367233766585C762.261274130508,225.97269940406667,756.5765926631351,223.2919625088775,750.8841239608754,220.89395524603583C745.1916552586157,218.49594798319416,739.491399321469,216.3806703527,733.7989306192093,213.74945689294773C728.1064619169493,211.11824343319554,722.4217804495765,207.9710941441853,716.7370989822035,210.58131852420556C711.0524175148306,213.19154290422583,705.3677360474575,221.55914095327668,699.6830545800844,229.39963502306236C693.9983731127114,237.24012909284806,688.3136916453386,244.5535191833686,682.6212229430788,248.2743545497854C676.928754240819,251.9951899162022,671.2284983036724,252.12347055851527,665.5360296014126,252.17191909426776C659.8435608991527,252.2203676300203,654.1588794317798,252.18898405921223,648.4741979644069,252.16309004288402C642.789516497034,252.13719602655587,637.104835029661,252.11679156470754,631.4198290941677,253.11453882489914C625.7348231586744,254.11228608509086,620.0494927550609,256.1281850673225,614.3566995846808,256.3202725784924C608.6639064143008,256.51236008966225,602.9636504771541,254.8806361297703,597.2715062430146,254.79004263666707C591.5793620088751,254.6994491435639,585.8953294777427,256.14998611724945,580.21097247849,256.8747459666267C574.5266154792374,257.59950581600384,568.8419340118644,257.59848854107275,563.1572525444914,257.56934391877667C557.4725710771185,257.5401992964806,551.7878896097454,257.48292732681944,546.0954209074856,257.8833487824625C540.4029522052259,258.28377023810555,534.7026962680793,259.1418851190528,529.0102275658195,259.40427589285974C523.3177588635598,259.6666666666667,517.6330773961868,259.3333333333333,511.9483959288137,259.3333333333333C506.26371446144077,259.3333333333333,500.5790329940678,259.6666666666667,494.89435152669483,259.8333333333333C489.2096700593218,260,483.5249885919489,260,477.8325198896891,260C472.14005118742926,260,466.4397952502827,260,460.74732654802295,260C455.05485784576314,260,449.37017637839017,260,443.6854949110172,260C438.0008134436442,260,432.31613197627127,260,426.6314505088983,260C420.94676904152533,260,415.2620875741524,260,409.56961887189254,260C403.8771501696328,260,398.1768942324862,260,392.4844255302264,260C386.79195682796654,260,381.10727536059363,260,375.42259389322066,260C369.7379124258477,260,364.0532309584748,260,358.36822502298145,260C352.6832190874882,260,346.99788868387463,260,341.30509551349456,260C335.61230234311455,260,329.91204640596794,260,324.2195777037081,260C318.5271090014483,260,312.84242753407534,260,307.1577460667024,260C301.4730645993294,260,295.78838313195644,260,290.10370166458347,260C284.4190201972105,260,278.73433872983753,260,273.042194495698,259.8333333333333C267.3500502615585,259.6666666666667,261.6504432606525,259.3333333333333,255.95829902651295,259.3333333333333C250.26615479237344,259.3333333333333,244.5814733250005,259.6666666666667,238.8967918576275,259.8333333333333C233.21211039025457,260,227.52742892288157,260,221.84274745550863,260C216.15806598813563,260,210.47338452076266,260,204.78091581850288,260C199.0884471162431,260,193.38819117909648,260,187.69572247683672,260C182.00325377457693,260,176.31857230720394,260,170.63389083983097,259.8333333333333C164.949209372458,259.6666666666667,159.26452790508503,259.3333333333333,153.57984643771204,259.3333333333333C147.89516497033904,259.3333333333333,142.21048350296607,259.6666666666667,136.5180148007063,259.8333333333333C130.8255460984465,260,125.12529016129992,260,119.43282145904014,260C113.74035275678035,260,108.05567128940739,260,102.3709898220344,260C96.68630835466143,260,91.00162688728847,260,85.31694541991548,260C79.63226395254252,260,73.94758248516952,260,68.25511378290975,260C62.56264508064995,260,56.86238914350336,260,51.16992044124357,260C45.47745173898378,260,39.79277027161081,260,34.108088804237845,260C28.42340733686487,260,22.738725869491898,260,17.054044402118922,260C11.369362934745949,260,5.684681467372974,260,2.842340733686487,260L0,260Z"><title>Streaming</title></path><path fill="#8c564b" d="M0,133.20696732592498L2.842340733686487,133.5763685963847C5.684681467372974,133.94576986684442,11.369362934745949,134.68457240776388,17.054044402118922,135.1567959492C22.738725869491898,135.6290194906361,28.42340733686487,135.8346640325889,34.108088804237845,134.2259642834028C39.79277027161081,132.61726453421667,45.47745173898378,129.19422049389166,51.16992044124357,123.02117417063471C56.86238914350336,116.84812784737774,62.56264508064995,107.92507924118887,68.25511378290975,100.88040019184443C73.94758248516952,93.83572114249999,79.63226395254252,88.66941164999999,85.31694541991548,91.96629744999997C91.00162688728847,95.26318324999998,96.68630835466143,107.02326434249998,102.37098982203442,115.64626747258332C108.05567128940739,124.26927060266667,113.74035275678035,129.75519577033333,119.43282145904014,132.94461805977778C125.12529016129992,136.13404034922223,130.8255460984465,137.02695976044444,136.5180148007063,140.12954658015835C142.21048350296607,143.23213339987223,147.89516497033904,148.54438762807777,153.57984643771204,151.00941495850415C159.26452790508503,153.47444228893053,164.949209372458,153.09224272157778,170.63389083983097,161.94919667180835C176.31857230720394,170.8061506220389,182.00325377457693,188.9022580898528,187.69572247683672,198.24748053975975C193.38819117909648,207.5927029896667,199.0884471162431,208.18704042166667,204.78091581850288,207.8358757974306C210.47338452076266,207.48471117319446,216.15806598813563,206.18804449272224,221.8427474555086,210.67570382256943C227.52742892288157,215.16336315241665,233.21211039025457,225.43534849258333,238.8967918576275,231.6729091785417C244.5814733250005,237.9104698645,250.26615479237344,240.11360589624996,255.95829902651295,242.31272758037497C261.6504432606525,244.5118492645,267.3500502615585,246.706956601,273.042194495698,248.24007688793054C278.73433872983753,249.7731971748611,284.4190201972105,250.64433041222222,290.10370166458347,252.1777782571875C295.78838313195644,253.71122610215275,301.4730645993294,255.90698855472223,307.1577460667024,257.0581978819333C312.84242753407534,258.20940720914444,318.5271090014483,258.31606341099723,324.2195777037081,258.4348524743736C329.91204640596794,258.55364153775,335.61230234311455,258.68456346265,341.30509551349456,258.74498610758053C346.99788868387463,258.8054087525111,352.6832190874882,258.79533211747224,358.36822502298145,258.77527687954586C364.0532309584748,258.75522164161947,369.7379124258477,258.72518780080554,375.42259389322066,258.6796329458611C381.10727536059363,258.6340780909167,386.79195682796654,258.5730022218417,392.4844255302264,258.5923180511847C398.1768942324862,258.6116338805278,403.8771501696328,258.7113414082889,409.56961887189254,258.7902880746986C415.2620875741524,258.8692347411083,420.94676904152533,258.9274205461666,426.6314505088983,258.9601667271486C432.31613197627127,258.99291290813056,438.0008134436442,259.0002194650361,443.6854949110172,259.0245315452889C449.37017637839017,259.0488436255417,455.05485784576314,259.09016122914164,460.74732654802284,259.1023140924111C466.4397952502827,259.1144669556806,472.14005118742926,259.0974550786195,477.8325198896891,259.12571737570556C483.5249885919489,259.15397967279165,489.2096700593218,259.227516144025,494.89435152669483,258.9390659401444C500.5790329940678,258.6506157362639,506.26371446144077,258.0001788572694,511.9483959288137,257.6127709337363C517.6330773961868,257.225363010203,523.3177588635598,257.1009840421311,529.0102275658195,257.28030293861167C534.7026962680793,257.4596218350922,540.4029522052259,257.9426385961253,546.0954209074856,258.2127829614723C551.7878896097454,258.48292732681944,557.4725710771185,258.5401992964806,563.1572525444914,258.56934391877667C568.8419340118644,258.59848854107275,574.5266154792374,258.59950581600384,580.21097247849,258.5368838253118C585.8953294777427,258.4742618346197,591.5793620088751,258.34800057830444,597.2715062430146,258.43859407140764C602.9636504771541,258.52918756451083,608.6639064143008,258.8366358070325,614.3566995846808,258.93995123550184C620.0494927550609,259.0432666639711,625.7348231586744,258.9424492783881,631.4198290941677,258.8306384525352C637.104835029661,258.71882762668224,642.789516497034,258.59602336055946,648.4741979644069,258.45641207701254C654.1588794317798,258.3168007934656,659.8435608991527,258.1603824924944,665.5360296014126,257.99136504805983C671.2284983036724,257.82234760362525,676.928754240819,257.6407310157272,682.6212229430788,257.48721255839286C688.3136916453386,257.3336941010586,693.9983731127114,257.20827377428805,699.6830545800844,256.25445336079747C705.3677360474575,255.30063294730692,711.0524175148306,253.51841244709638,716.7370989822035,252.61116115237266C722.4217804495765,251.70390985764888,728.1064619169493,251.67162776841192,733.7989306192093,251.62024201464192C739.491399321469,251.56885626087194,745.1916552586157,251.49836684256888,750.8841239608754,251.35954289786864C756.5765926631351,251.22071895316833,762.261274130508,251.01356048207083,767.945955597881,250.81126407606902C773.6306370652541,250.60896767006724,779.315318532627,250.4115333291611,782.1576592663135,250.31281615870807L785,250.214098988255L785,255.6782683751975L782.1576592663135,255.64666328442559C779.315318532627,255.6150581936536,773.6306370652541,255.55184801210973,767.945955597881,255.58652907767393C762.261274130508,255.62121014323807,756.5765926631351,255.75378245591028,750.8841239608754,255.80521718500276C745.1916552586157,255.8566519140953,739.491399321469,255.82694905960807,733.7989306192093,255.7957338936293C728.1064619169493,255.7645187276505,722.4217804495765,255.73179125018024,716.7370989822035,256.43225021599346C711.0524175148306,257.13270918180666,705.3677360474575,258.5663545909033,699.6830545800844,259.28317729545165C693.9983731127114,260,688.3136916453386,260,682.6212229430788,260C676.928754240819,260,671.2284983036724,260,665.5360296014126,260C659.8435608991527,260,654.1588794317798,260,648.4741979644069,260C642.789516497034,260,637.104835029661,260,631.4198290941677,260C625.7348231586744,260,620.0494927550609,260,614.3566995846808,259.83140376140517C608.6639064143008,259.6628075228103,602.9636504771541,259.32561504562057,597.2715062430146,259.1522681630829C591.5793620088751,258.9789212805453,585.8953294777427,258.96941999265977,580.21097247849,258.96287768566015C574.5266154792374,258.9563353786605,568.8419340118644,258.95275205254694,563.1572525444914,258.9284696559832C557.4725710771185,258.9041872594194,551.7878896097454,258.8592057924056,546.0954209074856,258.62623573071124C540.4029522052259,258.39326566901696,534.7026962680793,257.9723070126422,529.0102275658195,257.8366029584103C523.3177588635598,257.70089890417836,517.6330773961868,257.85044945208915,511.9483959288137,258.2585580593779C506.26371446144077,258.6666666666667,500.5790329940678,259.3333333333333,494.89435152669483,259.6666666666667C489.2096700593218,260,483.5249885919489,260,477.8325198896891,260C472.14005118742926,260,466.4397952502827,260,460.74732654802295,260C455.05485784576314,260,449.37017637839017,260,443.6854949110172,260C438.0008134436442,260,432.31613197627127,260,426.6314505088983,260C420.94676904152533,260,415.2620875741524,260,409.56961887189254,260C403.8771501696328,260,398.1768942324862,260,392.4844255302264,260C386.79195682796654,260,381.10727536059363,260,375.42259389322066,260C369.7379124258477,260,364.0532309584748,260,358.36822502298145,260C352.6832190874882,260,346.99788868387463,260,341.30509551349456,260C335.61230234311455,260,329.91204640596794,260,324.2195777037081,260C318.5271090014483,260,312.84242753407534,260,307.1577460667024,259.2248086008611C301.4730645993294,258.4496172017222,295.78838313195644,256.89923440344444,290.10370166458347,256.30297921594445C284.4190201972105,255.70672402844443,278.73433872983753,256.06459645172225,273.042194495698,256.67312118419443C267.3500502615585,257.28164591666666,261.6504432606525,258.14082295833333,255.95829902651295,258.7370781458333C250.26615479237344,259.3333333333333,244.5814733250005,259.6666666666667,238.8967918576275,255.7493594326389C233.21211039025457,251.8320521986111,227.52742892288157,243.66410439722222,221.84274745550863,241.82648665204167C216.15806598813563,239.98886890686114,210.47338452076266,244.4815812178889,204.78091581850288,247.93995119211112C199.0884471162431,251.39832116633337,193.38819117909648,253.82234880375003,187.69572247683672,246.85418048513472C182.00325377457693,239.88601216651944,176.31857230720394,223.52564789187218,170.63389083983097,217.02302788229443C164.949209372458,210.52040787271665,159.26452790508503,213.8755321282083,153.57984643771204,215.52814665457365C147.89516497033904,217.1807611809389,142.21048350296607,217.13086597817778,136.5180148007063,217.19078740617223C130.8255460984465,217.25070883416666,125.12529016129992,217.42044689291666,119.43282145904014,216.36450645631945C113.74035275678035,215.30856601972224,108.05567128940739,213.02694708777778,102.3709898220344,210.03243941902778C96.68630835466143,207.0379317502778,91.00162688728847,203.33053534472222,85.31694541991548,203.29416788986111C79.63226395254252,203.257800435,73.94758248516952,206.89246193083332,68.25511378290975,210.06331865767777C62.56264508064995,213.23417538452222,56.86238914350336,215.9412273423778,51.16992044124357,218.0826940392458C45.47745173898378,220.22416073611387,39.79277027161081,221.80004217199448,34.108088804237845,222.44209538534724C28.42340733686487,223.0841485987,22.738725869491898,222.792373589525,17.054044402118922,222.69353376767222C11.369362934745949,222.59469394581944,5.684681467372974,222.6887893112889,2.842340733686487,222.73583699402363L0,222.78288467675833Z"><title>Vinyl</title></path></g><g id="xAxis" transform="translate(0,260)" fill="none" font-size="10" font-family="sans-serif" text-anchor="middle"><path class="domain" stroke="currentColor" d="M0.5,0.5H785.5"/><g class="tick" opacity="1" transform="translate(34.608088804237845,0)"><line stroke="currentColor" y2="6"/><text fill="currentColor" y="9" dy="0.71em">1975</text></g><g class="tick" opacity="1" transform="translate(119.92503422415332,0)"><line stroke="currentColor" y2="6"/><text fill="currentColor" y="9" dy="0.71em">1980</text></g><g class="tick" opacity="1" transform="translate(205.2887030533897,0)"><line stroke="currentColor" y2="6"/><text fill="currentColor" y="9" dy="0.71em">1985</text></g><g class="tick" opacity="1" transform="translate(290.60370166458347,0)"><line stroke="currentColor" y2="6"/><text fill="currentColor" y="9" dy="0.71em">1990</text></g><g class="tick" opacity="1" transform="translate(375.92259389322066,0)"><line stroke="currentColor" y2="6"/><text fill="currentColor" y="9" dy="0.71em">1995</text></g><g class="tick" opacity="1" transform="translate(461.2395393131361,0)"><line stroke="currentColor" y2="6"/><text fill="currentColor" y="9" dy="0.71em">2000</text></g><g class="tick" opacity="1" transform="translate(546.6032081423724,0)"><line stroke="currentColor" y2="6"/><text fill="currentColor" y="9" dy="0.71em">2005</text></g><g class="tick" opacity="1" transform="translate(631.920153562288,0)"><line stroke="currentColor" y2="6"/><text fill="currentColor" y="9" dy="0.71em">2010</text></g><g class="tick" opacity="1" transform="translate(717.2370989822035,0)"><line stroke="currentColor" y2="6"/><text fill="currentColor" y="9" dy="0.71em">2015</text></g></g><text y="256" x="785" text-anchor="end" style="font-family: Arial, sans-serif; font-size: 12px; fill: rgb(123, 123, 123); font-weight: bold;">year-date</text><text x="4" text-anchor="start" dominant-baseline="hanging" style="font-family: Arial, sans-serif; font-size: 12px; fill: rgb(123, 123, 123); font-weight: bold;">Revenues in millions (Adjusted for inflation)</text><g id="labels"><text x="255.95083625974644" y="150.86254492331665" text-anchor="middle" alignment-baseline="middle" style="font-family: Arial, sans-serif; font-size: 10px; fill: black; font-weight: bold;">Tape</text><text x="443.6854949110172" y="122.918760458725" text-anchor="middle" alignment-baseline="middle" style="font-family: Arial, sans-serif; font-size: 10px; fill: black; font-weight: bold;">Disc</text><text x="665.5282423665258" y="189.56087029212918" text-anchor="middle" alignment-baseline="middle" style="font-family: Arial, sans-serif; font-size: 10px; fill: black; font-weight: bold;">Download</text><text x="529.0024403309327" y="247.78718240997205" text-anchor="middle" alignment-baseline="middle" style="font-family: Arial, sans-serif; font-size: 10px; fill: black; font-weight: bold;">Other</text><text x="785" y="183.4607985199083" text-anchor="end" alignment-baseline="middle" style="font-family: Arial, sans-serif; font-size: 10px; fill: black; font-weight: bold;">Streaming</text><text x="85.31694541991548" y="141.56312054833333" text-anchor="middle" alignment-baseline="middle" style="font-family: Arial, sans-serif; font-size: 10px; fill: black; font-weight: bold;">Vinyl</text></g></g><text x="4" y="4" style="font-family: Arial, sans-serif; font-size: 12px; fill: black; font-weight: bold; dominant-baseline: hanging;"/></g></g></svg>