<svg xmlns="http://www.w3.org/2000/svg" width="950" height="900"><rect width="950" height="900" x="0" y="0" fill="#FFFFFF" id="background"/><clipPath id="serieClipPath"><rect x="0" y="0" width="316.6666666666667" height="300"/></clipPath><g id="lunes" transform="translate(0,0)" clip-path="url(#serieClipPath)"><g id="lunes" transform="translate(165, 150)"><g id="axes"><circle r="90" fill="none" stroke="LightGray" class="grid" id="300"/><circle r="75" fill="none" stroke="LightGray" class="grid" id="250"/><circle r="60" fill="none" stroke="LightGray" class="grid" id="200"/><circle r="45" fill="none" stroke="LightGray" class="grid" id="150"/><circle r="30" fill="none" stroke="LightGray" class="grid" id="100"/><circle r="15" fill="none" stroke="LightGray" class="grid" id="50"/><circle r="0" fill="none" stroke="LightGray" class="grid" id="0"/><g><line x1="0" y1="0" x2="6.429395695523604e-15" y2="-105" stroke="black"/><text text-anchor="middle" dy="0.35em" x="7.041719095097281e-15" y="-115" font-family="Arial, sans-serif" font-size="12">Vigilia_min</text></g><g><line x1="0" y1="0" x2="105" y2="0" stroke="black"/><text text-anchor="middle" dy="0.35em" x="115" y="0" font-family="Arial, sans-serif" font-size="12">REM_min</text></g><g><line x1="0" y1="0" x2="6.429395695523604e-15" y2="105" stroke="black"/><text text-anchor="middle" dy="0.35em" x="7.041719095097281e-15" y="115" font-family="Arial, sans-serif" font-size="12">Ligero_min</text></g><g><line x1="0" y1="0" x2="-105" y2="1.2858791391047208e-14" stroke="black"/><text text-anchor="middle" dy="0.35em" x="-115" y="1.4083438190194563e-14" font-family="Arial, sans-serif" font-size="12">Profundo_min</text></g><g id="y axis" fill="none" font-size="10" font-family="sans-serif" text-anchor="end" transform="translate(0, -105)"><path class="domain" stroke="currentColor" d="M-6,0.5H0.5V105.5H-6"/><g class="tick" opacity="1" transform="translate(0,9.5)"><line stroke="currentColor" x2="-6"/><text fill="currentColor" x="-9" dy="0.32em">300</text></g><g class="tick" opacity="1" transform="translate(0,25.5)"><line stroke="currentColor" x2="-6"/><text fill="currentColor" x="-9" dy="0.32em">250</text></g><g class="tick" opacity="1" transform="translate(0,41.5)"><line stroke="currentColor" x2="-6"/><text fill="currentColor" x="-9" dy="0.32em">200</text></g><g class="tick" opacity="1" transform="translate(0,57.5)"><line stroke="currentColor" x2="-6"/><text fill="currentColor" x="-9" dy="0.32em">150</text></g><g class="tick" opacity="1" transform="translate(0,73.5)"><line stroke="currentColor" x2="-6"/><text fill="currentColor" x="-9" dy="0.32em">100</text></g><g class="tick" opacity="1" transform="translate(0,89.5)"><line stroke="currentColor" x2="-6"/><text fill="currentColor" x="-9" dy="0.32em">50</text></g><g class="tick" opacity="1" transform="translate(0,105.5)"><line stroke="currentColor" x2="-6"/><text fill="currentColor" x="-9" dy="0.32em">0</text></g></g></g><g id="radars"><g id="36"><path d="M47,-2.87791997799628e-15C53.85250972676648,11.906992153344525,10.150328487705819,86.7520833654073,1.0409497792752502e-14,85C-9.559204160766571,83.34995265257696,-20.89461101526337,8.736139737525557,-14,2.5717582782094417e-15C-11.217015948431824,-3.5263102599959923,-6.042489041558175,-0.8488032701026028,0,-1C11.058529564383642,-1.276709398413296,42.23268596312219,-8.28373444081474,47,-2.87791997799628e-15" stroke="#2ca02c" fill="#2ca02c" fill-opacity="0.5"/></g><g id="37"><path d="M32,-1.959434878635765e-15C35.497533918779304,21.73191577819784,8.884051922759527,83.53443897454383,1.0164568432923031e-14,83C-8.715690310991512,82.4756891750807,-23.73193686699709,22.086969066675202,-21,3.857637417314163e-15C-19.03496895527227,-15.886743366681216,-8.448803136436535,-38.18137060682411,0,-39C9.016591344174753,-39.873644063117574,29.366104197556123,-16.365703114392296,32,-1.959434878635765e-15" stroke="#2ca02c" fill="#2ca02c" fill-opacity="0.5"/></g><g id="38"><path d="M39,-2.388061258337339e-15C45.03564766182003,10.299708830891241,10.262901641958443,75.0093038639306,9.062386313690414e-15,74C-9.85947438805873,73.03037114225975,-28.39688857533967,8.994584811470327,-22,4.0413344371862654e-15C-18.583411649776355,-4.8040220366565,-8.37752532562202,-0.9171106005003601,0,-1C11.150233903163135,-1.1103232943608075,34.87807985325159,-7.033972112761003,39,-2.388061258337339e-15" stroke="#2ca02c" fill="#2ca02c" fill-opacity="0.5"/></g><g id="39"><path d="M47,-2.87791997799628e-15C55.1467275066244,13.574162099119691,9.97339276983077,99.58548806678242,1.2001538631644062e-14,98C-9.511737281440148,96.48790213098677,-20.546696916977183,10.070004900914403,-13,2.3880612583373385e-15C-10.247283666971606,-3.673112524509085,-5.6998038289581645,-1.6858461512536247,0,-2C10.779378865493184,-2.594122790767871,41.640324544176046,-8.930346986181775,47,-2.87791997799628e-15" stroke="#2ca02c" fill="#2ca02c" fill-opacity="0.5"/></g><g id="40"><path d="M42,-2.5717582782094417e-15C47.79968777025726,10.907456990675971,11.295146225470784,74.08850120848405,8.939921633775678e-15,73C-10.81151549865579,71.95810576942394,-31.254763823628636,9.960778290594016,-25,4.592425496802574e-15C-21.427016402293628,-5.6900145962721576,-9.420386328034953,-2.7732948726187923,0,-3C12.182139907552257,-3.293167762270894,37.899146000394396,-7.712464945980287,42,-2.5717582782094417e-15" stroke="#2ca02c" fill="#2ca02c" fill-opacity="0.5"/></g><g id="41"><path d="M38,-2.326828918379971e-15C44.66769224740076,10.862623068494882,9.389219020679048,81.04714123513368,9.797174393178826e-15,80C-9.034455848577522,78.99242405196804,-24.796386127563036,8.996255028520071,-18,3.3065463576978533e-15C-14.813294288022233,-4.218185480887794,-7.110480195440344,-0.8962194821295101,0,-1C10.325118689430402,-1.150699549849038,33.6317436999531,-7.116513464232711,38,-2.326828918379971e-15" stroke="#2ca02c" fill="#2ca02c" fill-opacity="0.5"/></g></g></g><text x="5" y="5" style="font-family: Arial, sans-serif; font-size: 12px; fill: black; font-weight: bold; dominant-baseline: hanging;">lunes</text></g><g id="jueves" transform="translate(316.66666666666663,0)" clip-path="url(#serieClipPath)"><g id="jueves" transform="translate(165, 150)"><g id="axes"><circle r="90" fill="none" stroke="LightGray" class="grid" id="300"/><circle r="75" fill="none" stroke="LightGray" class="grid" id="250"/><circle r="60" fill="none" stroke="LightGray" class="grid" id="200"/><circle r="45" fill="none" stroke="LightGray" class="grid" id="150"/><circle r="30" fill="none" stroke="LightGray" class="grid" id="100"/><circle r="15" fill="none" stroke="LightGray" class="grid" id="50"/><circle r="0" fill="none" stroke="LightGray" class="grid" id="0"/><g><line x1="0" y1="0" x2="6.429395695523604e-15" y2="-105" stroke="black"/><text text-anchor="middle" dy="0.35em" x="7.041719095097281e-15" y="-115" font-family="Arial, sans-serif" font-size="12">Vigilia_min</text></g><g><line x1="0" y1="0" x2="105" y2="0" stroke="black"/><text text-anchor="middle" dy="0.35em" x="115" y="0" font-family="Arial, sans-serif" font-size="12">REM_min</text></g><g><line x1="0" y1="0" x2="6.429395695523604e-15" y2="105" stroke="black"/><text text-anchor="middle" dy="0.35em" x="7.041719095097281e-15" y="115" font-family="Arial, sans-serif" font-size="12">Ligero_min</text></g><g><line x1="0" y1="0" x2="-105" y2="1.2858791391047208e-14" stroke="black"/><text text-anchor="middle" dy="0.35em" x="-115" y="1.4083438190194563e-14" font-family="Arial, sans-serif" font-size="12">Profundo_min</text></g><g id="y axis" fill="none" font-size="10" font-family="sans-serif" text-anchor="end" transform="translate(0, -105)"><path class="domain" stroke="currentColor" d="M-6,0.5H0.5V105.5H-6"/><g class="tick" opacity="1" transform="translate(0,9.5)"><line stroke="currentColor" x2="-6"/><text fill="currentColor" x="-9" dy="0.32em">300</text></g><g class="tick" opacity="1" transform="translate(0,25.5)"><line stroke="currentColor" x2="-6"/><text fill="currentColor" x="-9" dy="0.32em">250</text></g><g class="tick" opacity="1" transform="translate(0,41.5)"><line stroke="currentColor" x2="-6"/><text fill="currentColor" x="-9" dy="0.32em">200</text></g><g class="tick" opacity="1" transform="translate(0,57.5)"><line stroke="currentColor" x2="-6"/><text fill="currentColor" x="-9" dy="0.32em">150</text></g><g class="tick" opacity="1" transform="translate(0,73.5)"><line stroke="currentColor" x2="-6"/><text fill="currentColor" x="-9" dy="0.32em">100</text></g><g class="tick" opacity="1" transform="translate(0,89.5)"><line stroke="currentColor" x2="-6"/><text fill="currentColor" x="-9" dy="0.32em">50</text></g><g class="tick" opacity="1" transform="translate(0,105.5)"><line stroke="currentColor" x2="-6"/><text fill="currentColor" x="-9" dy="0.32em">0</text></g></g></g><g id="radars"><g id="18"><path d="M39,-2.388061258337339e-15C45.43634027847312,10.719040471437502,8.312771986288295,79.3566368974767,9.552245033349356e-15,78C-7.90053515910907,76.71063978125002,-17.125232198032126,7.731122116825657,-11,2.0206672185931327e-15C-8.706350419213745,-2.8949898434807864,-4.795564826153789,-0.8440304890967723,0,-1C9.012670040689159,-1.2931253750365594,34.69505254480327,-7.169432317617074,39,-2.388061258337339e-15" stroke="#ff7f0e" fill="#ff7f0e" fill-opacity="0.5"/></g><g id="19"><path d="M46,-2.8166876380389124e-15C53.271318613113834,12.868712837846253,9.62725241960987,90.66753541968379,1.0899356512411444e-14,89C-9.114911803445594,87.42120704671876,-18.778001173727542,9.99512669240285,-12,2.204364238465236e-15C-9.484505312450848,-3.70945466837282,-5.3454174100063145,-2.51800401282227,0,-3C10.319258688523623,-3.93048697548045,41.06767225030115,-8.729188309606158,46,-2.8166876380389124e-15" stroke="#ff7f0e" fill="#ff7f0e" fill-opacity="0.5"/></g><g id="20"><path d="M33,-2.0206672185931327e-15C39.02575840816375,10.046767176047586,9.23877521843469,72.61629020342083,8.817456953860943e-15,72C-9.007474457366415,71.39913915704308,-28.2046486251702,9.230924774790846,-22,4.0413344371862654e-15C-18.639029603965355,-5.0002613798688245,-8.079227773047336,-1.8782858417209607,0,-2C9.883708700845208,-2.1488987956512147,29.106878712785043,-6.4910141614327435,33,-2.0206672185931327e-15" stroke="#ff7f0e" fill="#ff7f0e" fill-opacity="0.5"/></g><g id="21"><path d="M41,-2.510525938252074e-15C47.85713604030871,11.659937738962402,10.236315982909119,84.1427891920302,1.0164568432923031e-14,83C-9.83027043561206,81.90254200560943,-27.073132578930963,9.96363866480085,-20,3.673940397442059e-15C-16.568056319455923,-4.834441652167657,-7.859153095988266,-1.7998359734416878,0,-2C11.231309207829,-2.286049151492933,36.43387773265646,-7.764276664885666,41,-2.510525938252074e-15" stroke="#ff7f0e" fill="#ff7f0e" fill-opacity="0.5"/></g><g id="22"><path d="M48,-2.9391523179536475e-15C55.725788885027775,12.619845883596296,10.313705096091276,95.68703507361656,1.151167991198512e-14,94C-9.78677026539501,92.39915679755026,-21.492078194990512,8.690558443463466,-14,2.5717582782094417e-15C-11.124453882828073,-3.335536674572665,-6.060363154689409,7.42180433906094e-16,0,0C11.221612041064887,-1.374251126736351e-15,42.789946806006924,-8.5104666115006,48,-2.9391523179536475e-15" stroke="#ff7f0e" fill="#ff7f0e" fill-opacity="0.5"/></g><g id="23"><path d="M48,-2.9391523179536475e-15C55.119165654828684,12.282180738927579,11.395283468216679,89.58185402075914,1.0776891832496709e-14,88C-10.812214869426402,86.49908555480711,-27.485798317659356,9.874099086278768,-20,3.673940397442059e-15C-16.47373640047867,-4.651297658377018,-8.105461446407407,-0.8819434056007187,0,-1C12.550452480439455,-1.1827981895672839,43.07306396009717,-8.500085805726174,48,-2.9391523179536475e-15" stroke="#ff7f0e" fill="#ff7f0e" fill-opacity="0.5"/></g></g></g><text x="5" y="5" style="font-family: Arial, sans-serif; font-size: 12px; fill: black; font-weight: bold; dominant-baseline: hanging;">jueves</text></g><g id="domingo" transform="translate(633.3333333333333,0)" clip-path="url(#serieClipPath)"><g id="domingo" transform="translate(165, 150)"><g id="axes"><circle r="90" fill="none" stroke="LightGray" class="grid" id="300"/><circle r="75" fill="none" stroke="LightGray" class="grid" id="250"/><circle r="60" fill="none" stroke="LightGray" class="grid" id="200"/><circle r="45" fill="none" stroke="LightGray" class="grid" id="150"/><circle r="30" fill="none" stroke="LightGray" class="grid" id="100"/><circle r="15" fill="none" stroke="LightGray" class="grid" id="50"/><circle r="0" fill="none" stroke="LightGray" class="grid" id="0"/><g><line x1="0" y1="0" x2="6.429395695523604e-15" y2="-105" stroke="black"/><text text-anchor="middle" dy="0.35em" x="7.041719095097281e-15" y="-115" font-family="Arial, sans-serif" font-size="12">Vigilia_min</text></g><g><line x1="0" y1="0" x2="105" y2="0" stroke="black"/><text text-anchor="middle" dy="0.35em" x="115" y="0" font-family="Arial, sans-serif" font-size="12">REM_min</text></g><g><line x1="0" y1="0" x2="6.429395695523604e-15" y2="105" stroke="black"/><text text-anchor="middle" dy="0.35em" x="7.041719095097281e-15" y="115" font-family="Arial, sans-serif" font-size="12">Ligero_min</text></g><g><line x1="0" y1="0" x2="-105" y2="1.2858791391047208e-14" stroke="black"/><text text-anchor="middle" dy="0.35em" x="-115" y="1.4083438190194563e-14" font-family="Arial, sans-serif" font-size="12">Profundo_min</text></g><g id="y axis" fill="none" font-size="10" font-family="sans-serif" text-anchor="end" transform="translate(0, -105)"><path class="domain" stroke="currentColor" d="M-6,0.5H0.5V105.5H-6"/><g class="tick" opacity="1" transform="translate(0,9.5)"><line stroke="currentColor" x2="-6"/><text fill="currentColor" x="-9" dy="0.32em">300</text></g><g class="tick" opacity="1" transform="translate(0,25.5)"><line stroke="currentColor" x2="-6"/><text fill="currentColor" x="-9" dy="0.32em">250</text></g><g class="tick" opacity="1" transform="translate(0,41.5)"><line stroke="currentColor" x2="-6"/><text fill="currentColor" x="-9" dy="0.32em">200</text></g><g class="tick" opacity="1" transform="translate(0,57.5)"><line stroke="currentColor" x2="-6"/><text fill="currentColor" x="-9" dy="0.32em">150</text></g><g class="tick" opacity="1" transform="translate(0,73.5)"><line stroke="currentColor" x2="-6"/><text fill="currentColor" x="-9" dy="0.32em">100</text></g><g class="tick" opacity="1" transform="translate(0,89.5)"><line stroke="currentColor" x2="-6"/><text fill="currentColor" x="-9" dy="0.32em">50</text></g><g class="tick" opacity="1" transform="translate(0,105.5)"><line stroke="currentColor" x2="-6"/><text fill="currentColor" x="-9" dy="0.32em">0</text></g></g></g><g id="radars"><g id="0"><path d="M45,-2.7554552980815448e-15C51.3184315318727,11.15410107153696,11.266919913784307,80.393904946714,9.674709713264091e-15,79C-10.700508818548885,77.67616950429512,-28.81772964021591,9.412109997034648,-22,4.0413344371862654e-15C-18.46693085023349,-4.877523342752991,-8.633477781761913,-0.8998268132471505,0,-1C12.342700797970934,-1.1432108477398966,40.554247373387085,-7.848209462450877,45,-2.7554552980815448e-15" stroke="#1f77b4" fill="#1f77b4" fill-opacity="0.5"/></g><g id="1"><path d="M36,-2.204364238465236e-15C40.30592145078991,8.435382763424876,9.802750552811561,56.968724956113924,6.858022075225178e-15,56C-9.31912540891318,55.079067726539236,-26.76912547709021,7.7282313841621635,-22,4.0413344371862654e-15C-19.110208150274964,-4.682825011424745,-8.237626598771962,-1.8551619098521508,0,-2C10.524051983668869,-2.185039170160798,32.831147656057446,-6.20784255993058,36,-2.204364238465236e-15" stroke="#1f77b4" fill="#1f77b4" fill-opacity="0.5"/></g><g id="2"><path d="M39,-2.388061258337339e-15C46.60302289058757,12.253910605502114,8.84585474717173,91.13215059138936,1.1021821192326179e-14,90C-8.524166733555171,88.9090211534864,-21.176462553581214,9.693463352656272,-14,2.5717582782094417e-15C-11.172186677983571,-3.8196123229878167,-5.852555847848439,-1.734522113596343,0,-2C9.725356466867687,-2.4411520618458242,34.202679815358906,-7.731915783304971,39,-2.388061258337339e-15" stroke="#1f77b4" fill="#1f77b4" fill-opacity="0.5"/></g><g id="3"><path d="M37,-2.2655965784226034e-15C42.17314459071815,9.78798717875438,10.284075764237052,65.84407432107933,7.960204194457796e-15,65C-9.898458770404972,64.1875755237611,-29.540476474490674,9.110819645065593,-24,4.408728476930472e-15C-20.726569269594876,-5.382865019398533,-8.873373483880508,-2.807191652672773,0,-3C10.992895496997502,-3.238863158072559,33.35551383347064,-6.895647945959489,37,-2.2655965784226034e-15" stroke="#1f77b4" fill="#1f77b4" fill-opacity="0.5"/></g><g id="4"><path d="M42,-2.5717582782094417e-15C48.46214696400891,12.27951663579057,9.340144886178802,81.46039203334419,9.797174393178826e-15,80C-8.855192892885194,78.61543334583256,-20.240925070941966,10.718694312883462,-14,2.5717582782094417e-15C-11.329904006462716,-4.585849439858961,-6.018942085730943,-4.321418166163622,0,-5C10.152539346394269,-6.144607917744331,37.578662510084904,-8.401524688657943,42,-2.5717582782094417e-15" stroke="#1f77b4" fill="#1f77b4" fill-opacity="0.5"/></g><g id="5"><path d="M28,-1.7145055188062944e-15C33.773185379087,9.323135366352043,7.207191807637969,68.62678150458814,8.327598234202001e-15,68C-7.013260256936019,67.39008396984082,-20.725663801600092,8.182292556169756,-15,2.7554552980815444e-15C-12.330858067383245,-3.814352522847623,-5.784398107792807,-1.8228145796393975,0,-2C7.878269973154283,-2.241324084354959,24.43312502609595,-5.76015770029195,28,-1.7145055188062944e-15" stroke="#1f77b4" fill="#1f77b4" fill-opacity="0.5"/></g></g></g><text x="5" y="5" style="font-family: Arial, sans-serif; font-size: 12px; fill: black; font-weight: bold; dominant-baseline: hanging;">domingo</text></g><g id="sábado" transform="translate(0,300)" clip-path="url(#serieClipPath)"><g id="sábado" transform="translate(165, 150)"><g id="axes"><circle r="90" fill="none" stroke="LightGray" class="grid" id="300"/><circle r="75" fill="none" stroke="LightGray" class="grid" id="250"/><circle r="60" fill="none" stroke="LightGray" class="grid" id="200"/><circle r="45" fill="none" stroke="LightGray" class="grid" id="150"/><circle r="30" fill="none" stroke="LightGray" class="grid" id="100"/><circle r="15" fill="none" stroke="LightGray" class="grid" id="50"/><circle r="0" fill="none" stroke="LightGray" class="grid" id="0"/><g><line x1="0" y1="0" x2="6.429395695523604e-15" y2="-105" stroke="black"/><text text-anchor="middle" dy="0.35em" x="7.041719095097281e-15" y="-115" font-family="Arial, sans-serif" font-size="12">Vigilia_min</text></g><g><line x1="0" y1="0" x2="105" y2="0" stroke="black"/><text text-anchor="middle" dy="0.35em" x="115" y="0" font-family="Arial, sans-serif" font-size="12">REM_min</text></g><g><line x1="0" y1="0" x2="6.429395695523604e-15" y2="105" stroke="black"/><text text-anchor="middle" dy="0.35em" x="7.041719095097281e-15" y="115" font-family="Arial, sans-serif" font-size="12">Ligero_min</text></g><g><line x1="0" y1="0" x2="-105" y2="1.2858791391047208e-14" stroke="black"/><text text-anchor="middle" dy="0.35em" x="-115" y="1.4083438190194563e-14" font-family="Arial, sans-serif" font-size="12">Profundo_min</text></g><g id="y axis" fill="none" font-size="10" font-family="sans-serif" text-anchor="end" transform="translate(0, -105)"><path class="domain" stroke="currentColor" d="M-6,0.5H0.5V105.5H-6"/><g class="tick" opacity="1" transform="translate(0,9.5)"><line stroke="currentColor" x2="-6"/><text fill="currentColor" x="-9" dy="0.32em">300</text></g><g class="tick" opacity="1" transform="translate(0,25.5)"><line stroke="currentColor" x2="-6"/><text fill="currentColor" x="-9" dy="0.32em">250</text></g><g class="tick" opacity="1" transform="translate(0,41.5)"><line stroke="currentColor" x2="-6"/><text fill="currentColor" x="-9" dy="0.32em">200</text></g><g class="tick" opacity="1" transform="translate(0,57.5)"><line stroke="currentColor" x2="-6"/><text fill="currentColor" x="-9" dy="0.32em">150</text></g><g class="tick" opacity="1" transform="translate(0,73.5)"><line stroke="currentColor" x2="-6"/><text fill="currentColor" x="-9" dy="0.32em">100</text></g><g class="tick" opacity="1" transform="translate(0,89.5)"><line stroke="currentColor" x2="-6"/><text fill="currentColor" x="-9" dy="0.32em">50</text></g><g class="tick" opacity="1" transform="translate(0,105.5)"><line stroke="currentColor" x2="-6"/><text fill="currentColor" x="-9" dy="0.32em">0</text></g></g></g><g id="radars"><g id="6"><path d="M48,-2.9391523179536475e-15C54.30395965383823,11.409539861010384,9.939258396424112,81.97100003068543,9.797174393178826e-15,80C-9.255184557190756,78.1646549150201,-18.367613855960634,8.04754029314505,-12,2.204364238465236e-15C-9.543267353731654,-3.1048765530627023,-5.33910769684995,-0.8336038238093288,0,-1C10.660913340555648,-1.3322531245464833,43.47778259883759,-8.184763629840553,48,-2.9391523179536475e-15" stroke="#8c564b" fill="#8c564b" fill-opacity="0.5"/></g><g id="7"><path d="M38,-2.326828918379971e-15C43.567286146876796,9.711220488276835,10.445845284921957,69.88300567175436,8.450062914116738e-15,69C-10.059640099543477,68.1496409317371,-29.951481720307477,8.751580532881023,-24,4.408728476930472e-15C-20.587326370276717,-5.018294520010673,-8.916337307803772,-0.9316421767151759,0,-1C11.216555203122255,-1.0859926303784446,34.1325468711282,-6.746139693864981,38,-2.326828918379971e-15" stroke="#8c564b" fill="#8c564b" fill-opacity="0.5"/></g><g id="8"><path d="M27,-1.6532731788489269e-15C33.30415781398315,11.879571882967095,6.346715548014264,76.62915897274623,9.307315673519884e-15,76C-6.192913170822349,75.38608767647062,-16.231836965345103,11.402814349194436,-11,2.0206672185931327e-15C-8.844199092389603,-4.698578661020011,-4.676426270817329,-6.2619730993764895,0,-7C6.839852880201194,-8.079455791572528,23.2926793479607,-6.9860849741771744,27,-1.6532731788489269e-15" stroke="#8c564b" fill="#8c564b" fill-opacity="0.5"/></g><g id="9"><path d="M46,-2.8166876380389124e-15C52.48385405533714,11.42238636708301,10.895498967997524,82.56921219771722,9.919639073093561e-15,81C-10.29704529827527,79.51697943068412,-25.91048156856737,9.206218640354788,-19,3.4902433775699565e-15C-15.695334116961105,-4.402511800474175,-7.713648089310889,-0.8810177453734871,0,-1C11.995349150013256,-1.185027067656687,41.443083760338546,-8.02776519761466,46,-2.8166876380389124e-15" stroke="#8c564b" fill="#8c564b" fill-opacity="0.5"/></g><g id="10"><path d="M20,-1.2246467991473533e-15C24.842129530056127,10.373133984631666,5.3552292139428035,61.32864298094678,7.470345474798855e-15,61C-5.270050600544266,60.676584312284156,-16.304845016730923,10.346626362339798,-12,2.204364238465236e-15C-9.926586223796644,-4.983416953113757,-4.65478211236166,-7.515334964312639,0,-8C5.688699826525851,-8.592318574292834,17.195113808436396,-6.008814943121789,20,-1.2246467991473533e-15" stroke="#8c564b" fill="#8c564b" fill-opacity="0.5"/></g><g id="11"><path d="M37,-2.2655965784226034e-15C43.68857635444884,11.112892086295307,8.697255770768455,81.0833687655918,9.797174393178826e-15,80C-8.357712591754671,78.9589262392245,-21.5959839186753,9.114388546059203,-15,2.7554552980815444e-15C-12.155918822872595,-3.9299763650846797,-6.1235702826731035,-1.759372942120397,0,-2C9.582161151802953,-2.376533156255384,32.66329337806423,-7.2053229484984636,37,-2.2655965784226034e-15" stroke="#8c564b" fill="#8c564b" fill-opacity="0.5"/></g></g></g><text x="5" y="5" style="font-family: Arial, sans-serif; font-size: 12px; fill: black; font-weight: bold; dominant-baseline: hanging;">sábado</text></g><g id="miércoles" transform="translate(316.66666666666663,300)" clip-path="url(#serieClipPath)"><g id="miércoles" transform="translate(165, 150)"><g id="axes"><circle r="90" fill="none" stroke="LightGray" class="grid" id="300"/><circle r="75" fill="none" stroke="LightGray" class="grid" id="250"/><circle r="60" fill="none" stroke="LightGray" class="grid" id="200"/><circle r="45" fill="none" stroke="LightGray" class="grid" id="150"/><circle r="30" fill="none" stroke="LightGray" class="grid" id="100"/><circle r="15" fill="none" stroke="LightGray" class="grid" id="50"/><circle r="0" fill="none" stroke="LightGray" class="grid" id="0"/><g><line x1="0" y1="0" x2="6.429395695523604e-15" y2="-105" stroke="black"/><text text-anchor="middle" dy="0.35em" x="7.041719095097281e-15" y="-115" font-family="Arial, sans-serif" font-size="12">Vigilia_min</text></g><g><line x1="0" y1="0" x2="105" y2="0" stroke="black"/><text text-anchor="middle" dy="0.35em" x="115" y="0" font-family="Arial, sans-serif" font-size="12">REM_min</text></g><g><line x1="0" y1="0" x2="6.429395695523604e-15" y2="105" stroke="black"/><text text-anchor="middle" dy="0.35em" x="7.041719095097281e-15" y="115" font-family="Arial, sans-serif" font-size="12">Ligero_min</text></g><g><line x1="0" y1="0" x2="-105" y2="1.2858791391047208e-14" stroke="black"/><text text-anchor="middle" dy="0.35em" x="-115" y="1.4083438190194563e-14" font-family="Arial, sans-serif" font-size="12">Profundo_min</text></g><g id="y axis" fill="none" font-size="10" font-family="sans-serif" text-anchor="end" transform="translate(0, -105)"><path class="domain" stroke="currentColor" d="M-6,0.5H0.5V105.5H-6"/><g class="tick" opacity="1" transform="translate(0,9.5)"><line stroke="currentColor" x2="-6"/><text fill="currentColor" x="-9" dy="0.32em">300</text></g><g class="tick" opacity="1" transform="translate(0,25.5)"><line stroke="currentColor" x2="-6"/><text fill="currentColor" x="-9" dy="0.32em">250</text></g><g class="tick" opacity="1" transform="translate(0,41.5)"><line stroke="currentColor" x2="-6"/><text fill="currentColor" x="-9" dy="0.32em">200</text></g><g class="tick" opacity="1" transform="translate(0,57.5)"><line stroke="currentColor" x2="-6"/><text fill="currentColor" x="-9" dy="0.32em">150</text></g><g class="tick" opacity="1" transform="translate(0,73.5)"><line stroke="currentColor" x2="-6"/><text fill="currentColor" x="-9" dy="0.32em">100</text></g><g class="tick" opacity="1" transform="translate(0,89.5)"><line stroke="currentColor" x2="-6"/><text fill="currentColor" x="-9" dy="0.32em">50</text></g><g class="tick" opacity="1" transform="translate(0,105.5)"><line stroke="currentColor" x2="-6"/><text fill="currentColor" x="-9" dy="0.32em">0</text></g></g></g><g id="radars"><g id="24"><path d="M37,-2.2655965784226034e-15C43.00947774685191,9.783208315411892,9.056872600221848,74.09351060456903,8.939921633775678e-15,73C-8.667371399964324,71.9535170739437,-23.23200935537768,7.850054014460424,-17,3.1228493378257506e-15C-14.032046286910667,-3.738536903842247,-6.7547389688176205,8.272169457238392e-16,0,0C9.965175969828318,-1.2203820854390367e-15,32.959349311990785,-6.5780304172546105,37,-2.2655965784226034e-15" stroke="#9467bd" fill="#9467bd" fill-opacity="0.5"/></g><g id="25"><path d="M45,-2.7554552980815448e-15C51.42021749304955,11.26286868365672,10.5520813369818,81.5466590980716,9.797174393178826e-15,80C-9.973614525251552,78.53812900474176,-24.796386127563036,8.996255028520071,-18,3.3065463576978533e-15C-14.813294288022233,-4.218185480887794,-7.353804485023102,-0.8776216190131452,0,-1C11.619865447142114,-1.1933720598096482,40.5040950248525,-7.88708286037104,45,-2.7554552980815448e-15" stroke="#9467bd" fill="#9467bd" fill-opacity="0.5"/></g><g id="26"><path d="M37,-2.2655965784226034e-15C43.78636923000208,11.215456744221546,9.566040904912406,81.89421554984568,9.919639073093561e-15,81C-9.25937866835131,80.13445066047156,-26.915883198099472,9.800308361305474,-20,3.673940397442059e-15C-16.60550570795761,-4.810244742399455,-7.691766458392815,-1.8243389362290239,0,-2C10.443555583386212,-2.238505172154208,32.62239247397104,-7.234629621138587,37,-2.2655965784226034e-15" stroke="#9467bd" fill="#9467bd" fill-opacity="0.5"/></g><g id="27"><path d="MNaN,NaNCNaN,NaN,NaN,NaN,NaN,NaNCNaN,NaN,NaN,NaN,NaN,NaNCNaN,NaN,NaN,NaN,NaN,NaNCNaN,NaN,NaN,NaN,NaN,NaN" stroke="#9467bd" fill="#9467bd" fill-opacity="0.5"/></g><g id="28"><path d="M45,-2.7554552980815448e-15C51.52182619587334,11.371093184769475,10.908297363805282,82.4540163519299,9.919639073093561e-15,81C-10.350877190058478,79.62028470720816,-26.94121600917186,9.334793111736014,-20,3.673940397442059e-15C-16.59941414128723,-4.573228294269172,-8.002404933732715,-0.8890002042557249,0,-1C11.997597574210962,-1.1664163324884689,40.454503161220686,-7.925275309780504,45,-2.7554552980815448e-15" stroke="#9467bd" fill="#9467bd" fill-opacity="0.5"/></g><g id="29"><path d="M42,-2.5717582782094417e-15C48.82328036155143,11.715765343051414,9.159701162569068,84.44573938776504,1.0164568432923031e-14,83C-8.704824958722359,81.62605688951373,-19.618352712829132,9.05076434852032,-13,2.3880612583373385e-15C-10.381268208258305,-3.58118180874359,-5.587580413078629,-1.7061966870867928,0,-2C9.990398818281607,-2.5253100721852686,37.412541952895126,-7.87679520012473,42,-2.5717582782094417e-15" stroke="#9467bd" fill="#9467bd" fill-opacity="0.5"/></g></g></g><text x="5" y="5" style="font-family: Arial, sans-serif; font-size: 12px; fill: black; font-weight: bold; dominant-baseline: hanging;">miércoles</text></g><g id="martes" transform="translate(633.3333333333333,300)" clip-path="url(#serieClipPath)"><g id="martes" transform="translate(165, 150)"><g id="axes"><circle r="90" fill="none" stroke="LightGray" class="grid" id="300"/><circle r="75" fill="none" stroke="LightGray" class="grid" id="250"/><circle r="60" fill="none" stroke="LightGray" class="grid" id="200"/><circle r="45" fill="none" stroke="LightGray" class="grid" id="150"/><circle r="30" fill="none" stroke="LightGray" class="grid" id="100"/><circle r="15" fill="none" stroke="LightGray" class="grid" id="50"/><circle r="0" fill="none" stroke="LightGray" class="grid" id="0"/><g><line x1="0" y1="0" x2="6.429395695523604e-15" y2="-105" stroke="black"/><text text-anchor="middle" dy="0.35em" x="7.041719095097281e-15" y="-115" font-family="Arial, sans-serif" font-size="12">Vigilia_min</text></g><g><line x1="0" y1="0" x2="105" y2="0" stroke="black"/><text text-anchor="middle" dy="0.35em" x="115" y="0" font-family="Arial, sans-serif" font-size="12">REM_min</text></g><g><line x1="0" y1="0" x2="6.429395695523604e-15" y2="105" stroke="black"/><text text-anchor="middle" dy="0.35em" x="7.041719095097281e-15" y="115" font-family="Arial, sans-serif" font-size="12">Ligero_min</text></g><g><line x1="0" y1="0" x2="-105" y2="1.2858791391047208e-14" stroke="black"/><text text-anchor="middle" dy="0.35em" x="-115" y="1.4083438190194563e-14" font-family="Arial, sans-serif" font-size="12">Profundo_min</text></g><g id="y axis" fill="none" font-size="10" font-family="sans-serif" text-anchor="end" transform="translate(0, -105)"><path class="domain" stroke="currentColor" d="M-6,0.5H0.5V105.5H-6"/><g class="tick" opacity="1" transform="translate(0,9.5)"><line stroke="currentColor" x2="-6"/><text fill="currentColor" x="-9" dy="0.32em">300</text></g><g class="tick" opacity="1" transform="translate(0,25.5)"><line stroke="currentColor" x2="-6"/><text fill="currentColor" x="-9" dy="0.32em">250</text></g><g class="tick" opacity="1" transform="translate(0,41.5)"><line stroke="currentColor" x2="-6"/><text fill="currentColor" x="-9" dy="0.32em">200</text></g><g class="tick" opacity="1" transform="translate(0,57.5)"><line stroke="currentColor" x2="-6"/><text fill="currentColor" x="-9" dy="0.32em">150</text></g><g class="tick" opacity="1" transform="translate(0,73.5)"><line stroke="currentColor" x2="-6"/><text fill="currentColor" x="-9" dy="0.32em">100</text></g><g class="tick" opacity="1" transform="translate(0,89.5)"><line stroke="currentColor" x2="-6"/><text fill="currentColor" x="-9" dy="0.32em">50</text></g><g class="tick" opacity="1" transform="translate(0,105.5)"><line stroke="currentColor" x2="-6"/><text fill="currentColor" x="-9" dy="0.32em">0</text></g></g></g><g id="radars"><g id="30"><path d="MNaN,NaNCNaN,NaN,NaN,NaN,NaN,NaNCNaN,NaN,NaN,NaN,NaN,NaNCNaN,NaN,NaN,NaN,NaN,NaNCNaN,NaN,NaN,NaN,NaN,NaN" stroke="#d62728" fill="#d62728" fill-opacity="0.5"/></g><g id="31"><path d="M22,-1.3471114790620886e-15C26.408761123115823,6.992149221800865,7.021288169514307,52.11609642597938,6.368163355566236e-15,52C-6.974573378630256,51.88467599926952,-24.45328951575555,6.84436994382782,-20,3.673940397442059e-15C-17.33015164046836,-4.103355463844359,-6.825865090653711,-0.9845219274531422,0,-1C7.1582529668423325,-1.0162317826763458,19.24658023977212,-4.366832608105164,22,-1.3471114790620886e-15" stroke="#d62728" fill="#d62728" fill-opacity="0.5"/></g><g id="32"><path d="M37,-2.2655965784226034e-15C43.60084624283421,10.69695096115716,9.048864218549078,80.02714624217205,9.674709713264091e-15,79C-8.709158664325921,78.0114140981135,-23.677348950351554,8.782867780661997,-17,3.1228493378257506e-15C-13.934683826348003,-4.031879546701359,-6.757482372333634,-0.8927653862817482,0,-1C9.962436443452349,-1.1580940896094876,32.700345152666316,-6.967772821819586,37,-2.2655965784226034e-15" stroke="#d62728" fill="#d62728" fill-opacity="0.5"/></g><g id="33"><path d="M47,-2.87791997799628e-15C54.73666286753079,13.45916368378442,9.971766199776317,95.64108168083202,1.151167991198512e-14,94C-9.475488014736083,92.44059221943297,-20.223478076798877,10.484441365214167,-13,2.3880612583373385e-15C-10.291490081308075,-3.931238266069586,-5.724607702102432,-2.5322487070619943,0,-3C10.755512650659469,-3.8788209097209196,41.82091990027012,-9.009838994825174,47,-2.87791997799628e-15" stroke="#d62728" fill="#d62728" fill-opacity="0.5"/></g><g id="34"><path d="M47,-2.87791997799628e-15C54.35743369616003,12.439115480167295,9.970026046505817,91.7002101755792,1.1021821192326179e-14,90C-9.43529332261624,88.39097895613733,-20.11054192515491,8.878251231510728,-13,2.3880612583373385e-15C-10.307524973283542,-3.3618351418744314,-5.684694928492519,-0.8422134626159749,0,-1C10.79426314362741,-1.299609640705315,41.99366058072163,-8.464151597019395,47,-2.87791997799628e-15" stroke="#d62728" fill="#d62728" fill-opacity="0.5"/></g><g id="35"><path d="M31,-1.8982025386783976e-15C38.064061199228334,11.717795450540478,7.868152386702425,83.65857954429771,1.0164568432923031e-14,83C-7.685212963168155,82.3567328386181,-22.740830381731616,10.5702682240026,-16,2.9391523179536475e-15C-13.022477397388686,-4.669040870384116,-6.247499014253631,-3.6351838307211977,0,-4C8.600775489408354,-4.502233287226508,26.80423959909216,-6.959886211445404,31,-1.8982025386783976e-15" stroke="#d62728" fill="#d62728" fill-opacity="0.5"/></g></g></g><text x="5" y="5" style="font-family: Arial, sans-serif; font-size: 12px; fill: black; font-weight: bold; dominant-baseline: hanging;">martes</text></g><g id="viernes" transform="translate(0,600)" clip-path="url(#serieClipPath)"><g id="viernes" transform="translate(165, 150)"><g id="axes"><circle r="90" fill="none" stroke="LightGray" class="grid" id="300"/><circle r="75" fill="none" stroke="LightGray" class="grid" id="250"/><circle r="60" fill="none" stroke="LightGray" class="grid" id="200"/><circle r="45" fill="none" stroke="LightGray" class="grid" id="150"/><circle r="30" fill="none" stroke="LightGray" class="grid" id="100"/><circle r="15" fill="none" stroke="LightGray" class="grid" id="50"/><circle r="0" fill="none" stroke="LightGray" class="grid" id="0"/><g><line x1="0" y1="0" x2="6.429395695523604e-15" y2="-105" stroke="black"/><text text-anchor="middle" dy="0.35em" x="7.041719095097281e-15" y="-115" font-family="Arial, sans-serif" font-size="12">Vigilia_min</text></g><g><line x1="0" y1="0" x2="105" y2="0" stroke="black"/><text text-anchor="middle" dy="0.35em" x="115" y="0" font-family="Arial, sans-serif" font-size="12">REM_min</text></g><g><line x1="0" y1="0" x2="6.429395695523604e-15" y2="105" stroke="black"/><text text-anchor="middle" dy="0.35em" x="7.041719095097281e-15" y="115" font-family="Arial, sans-serif" font-size="12">Ligero_min</text></g><g><line x1="0" y1="0" x2="-105" y2="1.2858791391047208e-14" stroke="black"/><text text-anchor="middle" dy="0.35em" x="-115" y="1.4083438190194563e-14" font-family="Arial, sans-serif" font-size="12">Profundo_min</text></g><g id="y axis" fill="none" font-size="10" font-family="sans-serif" text-anchor="end" transform="translate(0, -105)"><path class="domain" stroke="currentColor" d="M-6,0.5H0.5V105.5H-6"/><g class="tick" opacity="1" transform="translate(0,9.5)"><line stroke="currentColor" x2="-6"/><text fill="currentColor" x="-9" dy="0.32em">300</text></g><g class="tick" opacity="1" transform="translate(0,25.5)"><line stroke="currentColor" x2="-6"/><text fill="currentColor" x="-9" dy="0.32em">250</text></g><g class="tick" opacity="1" transform="translate(0,41.5)"><line stroke="currentColor" x2="-6"/><text fill="currentColor" x="-9" dy="0.32em">200</text></g><g class="tick" opacity="1" transform="translate(0,57.5)"><line stroke="currentColor" x2="-6"/><text fill="currentColor" x="-9" dy="0.32em">150</text></g><g class="tick" opacity="1" transform="translate(0,73.5)"><line stroke="currentColor" x2="-6"/><text fill="currentColor" x="-9" dy="0.32em">100</text></g><g class="tick" opacity="1" transform="translate(0,89.5)"><line stroke="currentColor" x2="-6"/><text fill="currentColor" x="-9" dy="0.32em">50</text></g><g class="tick" opacity="1" transform="translate(0,105.5)"><line stroke="currentColor" x2="-6"/><text fill="currentColor" x="-9" dy="0.32em">0</text></g></g></g><g id="radars"><g id="12"><path d="MNaN,NaNCNaN,NaN,NaN,NaN,NaN,NaNCNaN,NaN,NaN,NaN,NaN,NaNCNaN,NaN,NaN,NaN,NaN,NaNCNaN,NaN,NaN,NaN,NaN,NaN" stroke="#e377c2" fill="#e377c2" fill-opacity="0.5"/></g><g id="13"><path d="M25,-1.5308084989341915e-15C30.763559226708974,9.838709191509487,6.531267932876726,68.48834699773258,8.327598234202001e-15,68C-6.3935213034583365,67.52195240410113,-19.52357715040002,9.116744345862953,-14,2.5717582782094417e-15C-11.470453717175792,-4.175052894819464,-5.379543168715402,-3.6777994569432493,0,-4C7.093750982985977,-4.424870727373162,21.592890240313313,-5.81612173841616,25,-1.5308084989341915e-15" stroke="#e377c2" fill="#e377c2" fill-opacity="0.5"/></g><g id="14"><path d="M44,-2.6942229581241772e-15C50.05367148591941,10.499774068287522,9.848701476774464,77.6396004419018,9.307315673519884e-15,76C-9.250029659016734,74.46006575056677,-21.36266705982485,7.741199292483958,-15,2.7554552980815444e-15C-12.200187673226196,-3.406418251862109,-6.313632704368877,7.731970082397391e-16,0,0C10.813344067184628,-1.3242527199956675e-15,39.714974285668056,-7.432151213017904,44,-2.6942229581241772e-15" stroke="#e377c2" fill="#e377c2" fill-opacity="0.5"/></g><g id="15"><path d="MNaN,NaNCNaN,NaN,NaN,NaN,NaN,NaNCNaN,NaN,NaN,NaN,NaN,NaNCNaN,NaN,NaN,NaN,NaN,NaNCNaN,NaN,NaN,NaN,NaN,NaN" stroke="#e377c2" fill="#e377c2" fill-opacity="0.5"/></g><g id="16"><path d="M36,-2.204364238465236e-15C41.033184314621266,8.957307138275251,10.282347126387371,63.72806945750661,7.715274834628325e-15,63C-9.937803727865726,62.29632687167445,-30.38252271301843,8.278081572084384,-25,4.592425496802574e-15C-21.729744334568828,-5.029508392883137,-9.091935014848774,-0.9445019096904229,0,-1C10.90806541303489,-1.0665839338278038,32.45408570353991,-6.3104868516590695,36,-2.204364238465236e-15" stroke="#e377c2" fill="#e377c2" fill-opacity="0.5"/></g><g id="17"><path d="MNaN,NaNCNaN,NaN,NaN,NaN,NaN,NaNCNaN,NaN,NaN,NaN,NaN,NaNCNaN,NaN,NaN,NaN,NaN,NaNCNaN,NaN,NaN,NaN,NaN,NaN" stroke="#e377c2" fill="#e377c2" fill-opacity="0.5"/></g></g></g><text x="5" y="5" style="font-family: Arial, sans-serif; font-size: 12px; fill: black; font-weight: bold; dominant-baseline: hanging;">viernes</text></g><g id="grid"><rect x="0" y="0" width="316.6666666666667" height="300" fill="none" stroke="#ccc"/><rect x="316.66666666666663" y="0" width="316.6666666666667" height="300" fill="none" stroke="#ccc"/><rect x="633.3333333333333" y="0" width="316.6666666666667" height="300" fill="none" stroke="#ccc"/><rect x="0" y="300" width="316.6666666666667" height="300" fill="none" stroke="#ccc"/><rect x="316.66666666666663" y="300" width="316.6666666666667" height="300" fill="none" stroke="#ccc"/><rect x="633.3333333333333" y="300" width="316.6666666666667" height="300" fill="none" stroke="#ccc"/><rect x="0" y="600" width="316.6666666666667" height="300" fill="none" stroke="#ccc"/></g></svg>